<svg xmlns="http://www.w3.org/2000/svg" data-name="Layer 1" viewBox="0 0 100 125" x="0px" y="0px" width="40px" height="40px"><defs>
</defs>
<path fill='#ffffff' stroke="#B8860B" stroke-width="1.5" d="M17.92,38.14l2.257-17.3.017-.1a3.4,3.4,0,0,0-.038-1.653,2.51,2.51,0,0,0-.755-1.177,3.015,3.015,0,0,0-2.977-.583,3.14,3.14,0,0,0-1.337.923,3.066,3.066,0,0,0-.7,1.441l-.01.047h0l-6.4,29.4a17.148,17.148,0,0,0-.192,4.339,18.263,18.263,0,0,0,.923,4.4A17.051,17.051,0,0,0,12.46,63.71a18,18,0,0,0,5.864,3.981,1.21,1.21,0,0,1,.153.076,13.626,13.626,0,0,1,4.116,3.707,15.24,15.24,0,0,1,2.465,5.154,1.37,1.37,0,0,1,.045.346h0v4.694a25.193,25.193,0,0,0,18.146,0l-.022-9.584a17.228,17.228,0,0,0-12.514-17.49,1.359,1.359,0,0,1-.825-.655L23.264,41.909a1.236,1.236,0,0,1-.075-.161,2.752,2.752,0,0,0-3.325-1.511,2.878,2.878,0,0,0-1.6,1.26,2.739,2.739,0,0,0-.367,1.9l3.24,10.756.025.1A10.466,10.466,0,0,0,23.08,57.9a13.076,13.076,0,0,0,3.487,3.014,1.359,1.359,0,0,1-1.4,2.333A15.83,15.83,0,0,1,20.96,59.6a13.2,13.2,0,0,1-2.418-4.621L15.276,44.144a1.4,1.4,0,0,1-.046-.172,5.438,5.438,0,0,1,.709-3.881A5.66,5.66,0,0,1,17.92,38.14Zm4.944-16.887-2.105,16.14a5.472,5.472,0,0,1,4.916,3.25l6.332,11.5A19.95,19.95,0,0,1,45.945,72.218L45.971,82.5a1.362,1.362,0,0,1-.825,1.332,27.855,27.855,0,0,1-21.841.04,1.364,1.364,0,0,1-.927-1.292V77.144a12.452,12.452,0,0,0-1.969-4.051,10.95,10.95,0,0,0-3.239-2.941,20.7,20.7,0,0,1-6.649-4.535,19.806,19.806,0,0,1-4.362-6.77L6.143,58.8a20.973,20.973,0,0,1-1.078-5.113A19.815,19.815,0,0,1,5.3,48.664a1.4,1.4,0,0,1,.024-.154l6.392-29.349h0a5.79,5.79,0,0,1,1.3-2.684,5.889,5.889,0,0,1,2.509-1.722A5.724,5.724,0,0,1,21.2,15.861a5.2,5.2,0,0,1,1.565,2.456,6.06,6.06,0,0,1,.1,2.936ZM74.881,63.246a1.359,1.359,0,1,1-1.4-2.333A11.63,11.63,0,0,0,78.7,54.069l3.33-10.679a2.868,2.868,0,0,0-.336-1.943,2.653,2.653,0,0,0-1.2-1.1,1.366,1.366,0,0,1-.387-.139,3.076,3.076,0,0,0-2.033.173,2.7,2.7,0,0,0-1.418,1.381l-.054.112L70.073,54.008a1.354,1.354,0,0,1-.831.666A17.054,17.054,0,0,0,56.824,72.083c0,.051,0,.1,0,.153l-.109,9.254a25.994,25.994,0,0,0,9.168,1.783,24.305,24.305,0,0,0,8.934-1.606V76.974a1.348,1.348,0,0,1,.075-.447,14.788,14.788,0,0,1,2.47-5.012,14.312,14.312,0,0,1,4.213-3.75,1.406,1.406,0,0,1,.223-.1,17.573,17.573,0,0,0,5.722-3.925,17.33,17.33,0,0,0,3.75-5.875v0a18.789,18.789,0,0,0,.942-4.467A16.937,16.937,0,0,0,92.026,49h0L85.605,19.678c-.009-.044-.016-.087-.022-.131a3.01,3.01,0,1,0-5.891,1.241c.01.05.017.1.022.15l2.275,17.124a5.379,5.379,0,0,1,2.058,2.021,5.592,5.592,0,0,1,.644,3.889c-.01.048-.022.1-.037.144l-3.346,10.72a14.328,14.328,0,0,1-6.427,8.41ZM76.97,37.891a5.877,5.877,0,0,1,2.189-.5L77.021,21.306a5.729,5.729,0,1,1,11.23-2.274l6.435,29.4h0l.01.047a19.653,19.653,0,0,1,.237,5.137,21.528,21.528,0,0,1-1.081,5.119l-.033.1a20.074,20.074,0,0,1-4.346,6.8,20.291,20.291,0,0,1-6.587,4.52,11.581,11.581,0,0,0-3.347,3,12.078,12.078,0,0,0-1.992,3.99v5.438h0a1.359,1.359,0,0,1-.828,1.252A27,27,0,0,1,65.86,85.99a28.8,28.8,0,0,1-11.048-2.337,1.363,1.363,0,0,1-.826-1.268l.12-10.18A19.777,19.777,0,0,1,67.944,52.222l6.231-11.591a5.428,5.428,0,0,1,2.8-2.74ZM52.655,23.071a1.329,1.329,0,0,1-.488-.044,5.816,5.816,0,0,0-2.566.459,5.743,5.743,0,0,0-3.351,6.585,36.552,36.552,0,0,0,4.033,8.513A35.134,35.134,0,0,0,55.593,45a36.055,36.055,0,0,0,12.43-12.571,5.893,5.893,0,0,0,.429-3.935,5.537,5.537,0,0,0-2.176-3.223,5.759,5.759,0,0,0-7.418.633,1.358,1.358,0,0,1-2.112-.231l0,0A5.693,5.693,0,0,0,53.6,23.277a5.9,5.9,0,0,0-.94-.206Zm-1.84-2.7a8.549,8.549,0,0,0-2.279.615,8.477,8.477,0,0,0-4.911,9.8l.027.1a39.514,39.514,0,0,0,3.067,7.049,36.913,36.913,0,0,1-5.091-.659,40.731,40.731,0,0,1-7.071-2.241,5.747,5.747,0,0,1,3.55-10.765,1.341,1.341,0,0,0,.3.012,1.363,1.363,0,0,0,1.263-1.454,5.711,5.711,0,0,1,1.11-3.811,5.847,5.847,0,0,1,3.334-2.221,5.758,5.758,0,0,1,6.623,3.3c.027.085.054.177.08.276ZM53.3,19.191a11.857,11.857,0,0,1,.339,1.292c.255.054.506.118.754.194a8.448,8.448,0,0,1,3.712,2.317,8.455,8.455,0,0,1,9.746.057,8.236,8.236,0,0,1,3.242,4.8,8.608,8.608,0,0,1-.638,5.782c-.019.042-.041.084-.065.126A38.705,38.705,0,0,1,56.149,47.822a1.362,1.362,0,0,1-1.651-.131,37.74,37.74,0,0,1-6.049-6.946,44.215,44.215,0,0,1-7.364-.808,43.443,43.443,0,0,1-7.579-2.4,1.438,1.438,0,0,1-.146-.064,8.474,8.474,0,0,1,3.62-16,8.455,8.455,0,0,1,1.6-4.076,8.575,8.575,0,0,1,4.9-3.254,8.46,8.46,0,0,1,9.754,4.883A1.289,1.289,0,0,1,53.3,19.191Z"/>
</svg>