<svg xmlns="http://www.w3.org/2000/svg" xmlns:xlink="http://www.w3.org/1999/xlink" xml:space="preserve" version="1.1" style="shape-rendering:geometricPrecision;text-rendering:geometricPrecision;image-rendering:optimizeQuality;" viewBox="0 0 846.66 1058.325" x="0px" y="0px" fill-rule="evenodd" clip-rule="evenodd" width="40px" height="40px"><defs>
   </defs><g><path fill='#ffffff' stroke="#B8860B" stroke-width="10" d="M453.38 159.29l66.18 0c4.67,0 8.47,3.8 8.47,8.47l0 62.21 62.21 0c4.67,0 8.47,3.8 8.47,8.47l0 66.18c0,4.67 -3.8,8.47 -8.47,8.47l-62.21 0 0 62.2c0,4.67 -3.8,8.47 -8.47,8.47l-66.18 0c-4.67,0 -8.47,-3.8 -8.47,-8.47l0 -62.2 -62.2 0c-4.67,0 -8.47,-3.8 -8.47,-8.47l0 -66.18c0,-4.67 3.8,-8.47 8.47,-8.47l62.2 0 0 -62.21c0,-4.67 3.8,-8.47 8.47,-8.47zm-387.84 343.82l33.61 -9.01c11.22,-3 22.68,-1.13 32.06,4.28 5.96,3.43 11.09,8.3 14.81,14.26l28.14 -7.49c17.13,-19.69 39.9,-32.33 64.17,-37.07 24.76,-4.83 51.17,-1.47 74.85,10.92l131.55 35.25c11.03,2.95 19.92,10.11 25.37,19.27l0.29 0.47c5.31,9.18 7.2,20.37 4.46,31.37l26.18 0.13 239.91 -109.43c10.51,-4.78 22.05,-5.83 32.32,-3.08 10.09,2.7 19.02,8.99 24.75,18.91l8.86 15.33c5.8,10.08 6.94,21.47 4.16,31.82 -2.78,10.39 -9.55,19.83 -19.51,25.87l-281.03 170.65c-1.27,0.83 -2.78,1.33 -4.41,1.37l-259.89 6.14 -38.02 16.88c0.77,8.81 -1.3,17.48 -5.55,24.86 -5.42,9.41 -14.42,16.75 -25.66,19.76l-33.61 9.01c-11.22,3 -22.68,1.13 -32.06,-4.28 -9.4,-5.41 -16.75,-14.42 -19.76,-25.66l-55.93 -208.71c-3,-11.22 -1.13,-22.68 4.28,-32.06 5.42,-9.41 14.42,-16.75 25.66,-19.76zm86.62 25.38l52.19 194.73 36.58 -16.24c1.04,-0.46 2.13,-0.69 3.21,-0.72l259.3 -6.14 279.36 -169.63c6.05,-3.67 10.19,-9.45 11.89,-15.81 1.67,-6.22 1,-13.04 -2.43,-19.01l-8.87 -15.32c-3.33,-5.77 -8.57,-9.45 -14.49,-11.03 -6.58,-1.76 -14.06,-1.05 -20.94,2.08l-241.6 110.2c-1.21,0.55 -2.47,0.79 -3.72,0.76l-32.29 -0.17 -0.26 0.98c-2.95,11.02 -10.11,19.91 -19.27,25.36l-0.47 0.29c-9.38,5.42 -20.84,7.29 -32.08,4.28l-132.39 -35.47c-4.51,-1.2 -7.19,-5.84 -5.99,-10.35 1.2,-4.51 5.84,-7.19 10.35,-5.99l132.39 35.47c6.75,1.8 13.64,0.69 19.26,-2.56l0.39 -0.21c5.45,-3.26 9.71,-8.58 11.47,-15.18l4.58 -17.1c1.8,-6.75 0.69,-13.64 -2.56,-19.26l-0.21 -0.39c-3.26,-5.45 -8.59,-9.71 -15.19,-11.47l-132.38 -35.47c-0.85,-0.23 -1.64,-0.58 -2.34,-1.02 -20.22,-10.67 -42.85,-13.56 -64.08,-9.42 -21.4,4.18 -41.43,15.56 -56.17,33.34 -1.17,1.42 -2.71,2.35 -4.37,2.78l-28.87 7.69zm-48.65 -18.05l-33.61 9.01c-6.74,1.8 -12.15,6.22 -15.4,11.85 -3.25,5.62 -4.37,12.51 -2.56,19.27l55.93 208.71c1.8,6.74 6.22,12.15 11.85,15.4 5.62,3.25 12.51,4.37 19.27,2.56l33.61 -9.01c6.74,-1.8 12.15,-6.22 15.4,-11.85 3.25,-5.62 4.37,-12.52 2.56,-19.27l-55.93 -208.71c-1.8,-6.74 -6.22,-12.15 -11.85,-15.4 -5.62,-3.25 -12.52,-4.37 -19.27,-2.56zm382.97 -458.8c60.72,0 115.7,24.62 155.48,64.4 39.78,39.78 64.4,94.76 64.4,155.48 0,60.72 -24.62,115.7 -64.4,155.48 -39.78,39.78 -94.76,64.4 -155.48,64.4 -60.72,0 -115.7,-24.62 -155.48,-64.4 -39.78,-39.78 -64.4,-94.76 -64.4,-155.48 0,-60.72 24.62,-115.7 64.4,-155.48 39.78,-39.78 94.76,-64.4 155.48,-64.4zm143.5 76.38c-36.72,-36.72 -87.46,-59.44 -143.5,-59.44 -56.04,0 -106.78,22.72 -143.5,59.44 -36.72,36.72 -59.44,87.46 -59.44,143.5 0,56.04 22.72,106.78 59.44,143.5 36.72,36.72 87.46,59.44 143.5,59.44 56.04,0 106.78,-22.72 143.5,-59.44 36.72,-36.72 59.44,-87.46 59.44,-143.5 0,-56.04 -22.72,-106.78 -59.44,-143.5zm-143.5 -34.39c49.13,0 93.61,19.92 125.79,52.1 32.18,32.18 52.1,76.68 52.1,125.79 0,49.13 -19.92,93.61 -52.1,125.79 -32.18,32.18 -76.66,52.1 -125.79,52.1 -49.11,0 -93.61,-19.92 -125.79,-52.1 -32.18,-32.18 -52.1,-76.66 -52.1,-125.79 0,-49.11 19.92,-93.61 52.1,-125.79 32.18,-32.18 76.68,-52.1 125.79,-52.1zm113.81 64.08c-29.12,-29.12 -69.37,-47.14 -113.81,-47.14 -44.44,0 -84.69,18.02 -113.81,47.14 -29.12,29.12 -47.14,69.37 -47.14,113.81 0,44.44 18.02,84.69 47.14,113.81 29.12,29.12 69.37,47.14 113.81,47.14 44.44,0 84.69,-18.02 113.81,-47.14 29.12,-29.12 47.14,-69.37 47.14,-113.81 0,-44.44 -18.02,-84.69 -47.14,-113.81zm-89.2 18.52l-49.24 0 0 62.21c0,4.67 -3.8,8.47 -8.47,8.47l-62.2 0 0 49.24 62.2 0c4.67,0 8.47,3.8 8.47,8.47l0 62.2 49.24 0 0 -62.2c0,-4.67 3.8,-8.47 8.47,-8.47l62.21 0 0 -49.24 -62.21 0c-4.67,0 -8.47,-3.8 -8.47,-8.47l0 -62.21z"/></g></svg>