<svg xmlns="http://www.w3.org/2000/svg" xmlns:xlink="http://www.w3.org/1999/xlink" version="1.1" x="0px" y="0px" viewBox="0 0 64 80" style="enable-background:new 0 0 64 64;" xml:space="preserve" width="40px" height="40px"><g>
<path fill='#ffffff' stroke="#B8860B" stroke-width="1" d="M54.32,41.77c-0.97-0.48-2.06-0.54-3.08-0.17l-22.43,8.22l-4.08-3.27l6.31-2.35c1.08-0.4,1.91-1.25,2.27-2.31   c0.4-1.1,0.28-2.3-0.33-3.3c-0.61-1-1.62-1.66-2.78-1.82l-7.29-1c-1.51-0.2-3.04,0.15-4.31,0.99l-6.27,4.16H6.45   c-0.55,0-1,0.45-1,1v13.8c0,0.44,0.29,0.83,0.71,0.96l16,4.89c0.91,0.28,1.85,0.42,2.78,0.42c1.42,0,2.83-0.32,4.13-0.95   l25.22-12.22c1.35-0.66,2.22-2.05,2.22-3.54c0-0.38-0.06-0.77-0.18-1.17C56,43.09,55.29,42.25,54.32,41.77z M53.42,47.03   L28.2,59.25c-1.71,0.83-3.64,0.98-5.45,0.42L7.45,54.99V42.94h5.18c0.2,0,0.39-0.06,0.55-0.17l6.53-4.33   c0.86-0.57,1.9-0.81,2.93-0.68l7.29,0.99c0.56,0.08,1.04,0.4,1.33,0.88s0.35,1.06,0.15,1.6c-0.18,0.51-0.57,0.91-1.09,1.1   l-7.96,2.97c-0.34,0.13-0.58,0.42-0.64,0.78s0.08,0.71,0.36,0.94l5.9,4.72c0.28,0.22,0.64,0.28,0.97,0.16l22.96-8.41   c0.5-0.18,1.03-0.15,1.51,0.08c0.48,0.24,0.83,0.65,0.99,1.14c0.06,0.2,0.09,0.4,0.09,0.59C54.51,46.03,54.08,46.71,53.42,47.03z"/>
<path fill='#ffffff' stroke="#B8860B" stroke-width="1" d="M53.47,7.92h-5.43V5.04C48.04,3.36,46.68,2,45,2h-9c-1.67,0-3.04,1.36-3.04,3.04v2.89h-5.44c-2.8,0-5.07,2.28-5.07,5.07   v14.25c0,2.8,2.28,5.07,5.07,5.07h25.94c2.8,0,5.07-2.28,5.07-5.07V13C58.55,10.2,56.27,7.92,53.47,7.92z M34.96,5.04   C34.96,4.46,35.43,4,36,4h9c0.57,0,1.04,0.46,1.04,1.04v2.89H34.96V5.04z M27.53,9.92h25.94c1.69,0,3.07,1.38,3.07,3.07v3.69   l-12.1,2.89v-0.43c0-1.11-0.91-2.02-2.02-2.02h-3.85c-1.11,0-2.02,0.91-2.02,2.02v0.43l-12.1-2.89V13   C24.46,11.3,25.84,9.92,27.53,9.92z M42.45,19.15l-0.02,4.82l-3.87-0.02v-4.8c0-0.01,0.01-0.02,0.02-0.02L42.45,19.15z    M53.47,30.32H27.53c-1.69,0-3.07-1.38-3.07-3.07v-8.5l12.1,2.89v2.32c0,1.11,0.91,2.02,2.02,2.02h3.85c1.11,0,2.02-0.91,2.02-2.02   v-2.32l12.1-2.89v8.5C56.55,28.94,55.17,30.32,53.47,30.32z"/></g>
</svg>