<svg xmlns="http://www.w3.org/2000/svg" viewBox="0 0 64 64" id="angpao"><g data-name="Layer 2"><path fill="none" d="M0 0h64v64H0z"></path><path fill="none" stroke="#000" stroke-linecap="round" stroke-linejoin="round" stroke-width="2" d="M24 9h-4.59a2 2 0 0 0-2 2v8h29.18v-8a2 2 0 0 0-2-2H40m2.92 9.75a11.05 11.05 0 1 0-21.84 0"></path><path fill="none" stroke="#000" stroke-linejoin="round" stroke-width="2" d="M39.76 18.79a8 8 0 1 0-15.42.41m9.48-.33h-3.64v-3.64h3.64Z"></path><path fill="none" stroke="#000" stroke-linecap="round" stroke-linejoin="round" stroke-width="2" d="M46.59 42.48V57H17.41v-6.05M17.41 31.25v-12.2h29.18v4.12"></path><path fill="#ce2521" stroke="#000" stroke-linecap="round" stroke-linejoin="round" stroke-width="2" d="M32 47.78V57M32 19v6.95"></path><path fill="none" stroke="#000" stroke-linecap="round" stroke-linejoin="round" stroke-width="2" d="M29.72 32.28A11.05 11.05 0 1 0 34 41.74"></path><path fill="none" stroke="#000" stroke-linejoin="round" stroke-width="2" d="M23 33.1a8 8 0 1 0 8 8 8 8 0 0 0-8-8Zm1.82 9.77h-3.64v-3.64h3.64Z"></path><path fill="none" stroke="#000" stroke-linecap="round" stroke-linejoin="round" stroke-width="2" d="M41 21.9a11.05 11.05 0 1 0 11.05 11.05A11.05 11.05 0 0 0 41 21.9Z"></path><path fill="none" stroke="#000" stroke-linejoin="round" stroke-width="2" d="M41 25a8 8 0 1 0 8 8 8 8 0 0 0-8-8Zm1.82 9.77h-3.64v-3.64h3.64Z"></path></g></svg>