<svg xmlns="http://www.w3.org/2000/svg" viewBox="0 0 48 48" id="chinese-knot"><path stroke="#B8860B" fill="#ffffff" fill-rule="evenodd" d="m22.48,13.24l-2.05,2.05c-.39.39-.39,1.02,0,1.42l2.54,2.53v1.47c-1.19-.77-2.23-1.46-2.99-1.96,0,0-.01,0-.02-.01-.58-.37-1.28-.49-1.95-.32-.67.16-1.24.59-1.58,1.18h0c-.65,1.14-.31,2.58.79,3.3l2.13,1.39-.93.56c-.65-.4-1.27-.77-1.87-1.11-1.92-1.08-3.57-1.73-4.51-1.73-1.32,0-2.3.38-2.96,1.04-.66.66-1.04,1.64-1.04,2.96s.38,2.3,1.04,2.96c.66.66,1.64,1.04,2.96,1.04.73,0,2.33-.63,4.3-1.68.64-.34,1.33-.73,2.04-1.14l.77.5.25.17-2.06,1.33c-.63.4-1.05,1.06-1.16,1.79-.11.74.1,1.49.58,2.06.04.05.08.09.13.13.87.9,2.28,1.04,3.31.31,0,0,0,0,.01-.01.69-.5,1.64-1.19,2.75-1.97v2.68c-1.16.41-2,1.52-2,2.83,0,.91.41,1.72,1.04,2.27l-.84,1.13c-.33.44-.24,1.07.2,1.4.44.33,1.07.24,1.4-.2l.2-.27v1.67c0,.55.45,1,1,1s1-.45,1-1v-1.67l.2.27c.33.44.96.53,1.4.2.44-.33.53-.96.2-1.4l-.84-1.13c.64-.55,1.04-1.37,1.04-2.27,0-1.31-.84-2.42-2-2.83v-2.42c.9.66,1.67,1.24,2.26,1.68,0,0,0,0,.01.01,1.01.74,2.39.67,3.32-.13.06-.04.11-.08.15-.13h0c.57-.57.85-1.37.77-2.17-.08-.8-.52-1.53-1.2-1.97l-1.85-1.21c.37-.24.74-.47,1.11-.7.75.43,1.46.84,2.13,1.19,1.96,1.05,3.57,1.68,4.3,1.68,1.32,0,2.3-.38,2.96-1.04.66-.66,1.04-1.64,1.04-2.96s-.38-2.3-1.04-2.96c-.66-.66-1.64-1.04-2.96-1.04-.94,0-2.62.66-4.6,1.73-.59.32-1.21.68-1.85,1.06-.29-.17-.58-.35-.88-.53l2.13-1.38c1.1-.71,1.45-2.16.8-3.3h0c-.34-.59-.91-1.02-1.58-1.18-.67-.16-1.37-.05-1.95.32,0,0,0,0-.02.01-.77.51-1.84,1.22-3.06,2.01v-1.51l2.54-2.53c.39-.39.39-1.02,0-1.42l-2.05-2.05c.09-.1.18-.22.27-.35.73-1.09,1.25-3.15,1.25-4.89s-.51-2.76-1.16-3.33c-.52-.46-1.15-.67-1.84-.67s-1.33.21-1.84.67c-.65.57-1.16,1.6-1.16,3.33s.52,3.81,1.25,4.89c.09.13.17.24.27.35h0Zm1.48,22.76c.55,0,1,.45,1,1s-.45,1-1,1-1-.45-1-1,.45-1,1-1h0Zm2.63-6.99c-.35.23-.69.46-1.03.69,1.15.84,2.15,1.58,2.86,2.12h0c.27.19.63.16.86-.07.02-.02.04-.04.06-.06.11-.14.16-.31.14-.49-.02-.2-.13-.39-.31-.5l-2.59-1.69h0Zm-5.39.05l-2.78,1.79c-.14.09-.24.24-.27.41-.02.14.01.29.09.41.02.02.03.04.05.05.19.22.51.26.75.1.75-.54,1.81-1.3,3.03-2.16-.29-.2-.58-.41-.88-.61h0Zm3.57-1.24l-.82-.53-.94.6.95.61c.14-.09.81-.67.81-.67h0Zm-8.34-1.84c-.3-.18-.59-.35-.88-.51-1.52-.85-2.78-1.48-3.53-1.48-.68,0-1.2.12-1.54.46-.34.34-.46.86-.46,1.54s.12,1.2.46,1.54c.34.34.87.46,1.54.46.18,0,.44-.09.77-.22.69-.26,1.58-.69,2.59-1.23.34-.18.69-.37,1.05-.57h0Zm15.07-.03c.38.21.75.42,1.1.61,1.01.54,1.9.97,2.59,1.23.33.12.59.22.77.22.68,0,1.2-.12,1.54-.46.34-.34.46-.86.46-1.54s-.12-1.2-.46-1.54c-.34-.34-.86-.46-1.54-.46-.75,0-2.06.63-3.64,1.49-.27.15-.54.3-.82.46h0Zm-10.31-.45l-.73.51.76.67.89-.57-.92-.6h0Zm5.57-.02l-.97.63.8.52c.34-.22.67-.43,1.01-.65-.28-.17-.55-.33-.83-.5h0Zm-2.77-1.73l-.92.58.88.58.93-.6-.89-.56h0Zm-1.86-1.19c-1.31-.85-2.45-1.6-3.27-2.15-.12-.07-.26-.09-.39-.06-.14.03-.25.12-.32.24h0c-.12.22-.06.49.15.62l2.92,1.91.91-.57h0Zm4.6.55l2.94-1.9c.21-.13.27-.41.15-.62h0c-.07-.12-.19-.21-.32-.24-.13-.03-.27-.01-.39.06-.82.54-1.96,1.3-3.27,2.14l.89.55h0Zm-1.36-7.11l-1.41,1.41-1.41-1.41,1.41-1.41,1.41,1.41h0Zm-1.41-4.13c-.09-.12-.21-.28-.28-.43-.44-.9-.72-2.26-.72-3.44,0-1.37.32-2,1-2s1,.63,1,2c0,1.17-.28,2.54-.72,3.44-.07.15-.19.32-.28.43h0Z"></path></svg>