<svg xmlns="http://www.w3.org/2000/svg" data-name="Layer 1" viewBox="0 0 512 512" id="dragon"><path d="M507.31 225.52a7.52 7.52 0 0 0-8.55 2.13q-26.16 31.1-53.82 48.27l5.69-78.09h1.73a34.82 34.82 0 0 0 34.78-34.78V88.58a7.5 7.5 0 0 0-15 0v22.55h-17.51L428.68 15a11.5 11.5 0 0 0-21.14-2.62l-31.81 56.81-41.35-50.95A49.13 49.13 0 0 0 296.08 0h-80a49.11 49.11 0 0 0-38.53 18.52L137 69.2l-32.59-57a11.5 11.5 0 0 0-21.06 2.7l-26 96.23H39.86V88.58a7.5 7.5 0 0 0-15 0v74.47a34.82 34.82 0 0 0 34.78 34.78h1.73l5.69 78.09q-27.6-17.15-53.82-48.27A7.5 7.5 0 0 0 0 233c1.66 24.12 9.79 69.66 45.51 103.64 23.11 22 55 36.47 88.7 41L147.78 456a67.37 67.37 0 0 0 66.52 56h83.4a67.37 67.37 0 0 0 66.52-56l13.55-78.38c33.73-4.53 65.59-19 88.7-41 35.72-34 43.85-79.52 45.51-103.64a7.49 7.49 0 0 0-4.67-7.46Zm-58.43-99.38h23.26v36.92a19.8 19.8 0 0 1-19.78 19.78h-150.2v-8.55a48.2 48.2 0 0 1 48.14-48.15h98.58ZM359 232.44a37.65 37.65 0 0 0 37.48-34.61h9.1a48.1 48.1 0 1 1-93.16 0h9.1A37.65 37.65 0 0 0 359 232.44Zm-22.4-34.61h44.8a22.6 22.6 0 0 1-44.8 0ZM95.62 27l30.95 54.13a11.5 11.5 0 0 0 19 1.47l43.77-54.7A34.16 34.16 0 0 1 216.11 15h80a34.18 34.18 0 0 1 26.65 12.7l44.61 55a11.5 11.5 0 0 0 19-1.63l30.14-53.8 22.65 83.91H350.3a63.21 63.21 0 0 0-63.14 63.15v16.05a7.5 7.5 0 0 0 7.5 7.5h2.4a63.1 63.1 0 1 0 123.88 0h14.65l-6.31 86.65a124.47 124.47 0 0 1-43.5 11.87c-30.64 2.42-58.23-7.54-80.4-15.55l-4.75-1.71a51 51 0 0 0-89.26 0l-4.74 1.71c-22.17 8-49.78 18-80.4 15.55a124.46 124.46 0 0 1-43.51-11.87l-6.31-86.65h13.65a63.1 63.1 0 1 0 123.88 0h3.4a7.5 7.5 0 0 0 7.5-7.5v-16.1a63.21 63.21 0 0 0-63.14-63.15H72.91ZM256 339.74a36 36 0 1 1 36-36 36 36 0 0 1-36 36Zm76.13 37.73-12.25 70.86A22.47 22.47 0 0 1 297.7 467h-83.4a22.46 22.46 0 0 1-22.18-18.67l-12.25-70.86c23.54-3.52 43.6-12.5 58-26.08a50.84 50.84 0 0 0 36.3 0c14.36 13.61 34.42 22.61 57.96 26.08ZM152 232.44a37.65 37.65 0 0 0 37.48-34.61h9.1a48.1 48.1 0 1 1-93.16 0h9.1A37.65 37.65 0 0 0 152 232.44Zm-22.4-34.61h44.8a22.6 22.6 0 0 1-44.8 0Zm-70-15a19.8 19.8 0 0 1-19.78-19.78v-36.92H161.7a48.2 48.2 0 0 1 48.14 48.15v8.55Zm-3.73 142.93c-22.66-21.56-33-48.55-37.59-70.28q26 26.32 53.6 40.39c.18.11.38.2.58.3A140.67 140.67 0 0 0 125 311.3c30.79 2.43 58.81-6.45 80.4-14.14a50.75 50.75 0 0 0 18.7 46.34c-15.13 12.36-37.34 19.75-62.47 20.56-39.63 1.28-79.2-13.06-105.76-38.3Zm293.57 127.69A52.4 52.4 0 0 1 297.7 497h-83.4a52.4 52.4 0 0 1-51.74-43.55L149.69 379c2.36.1 4.72.16 7.08.16q2.67 0 5.34-.09l2.79-.11 12.44 71.95a37.43 37.43 0 0 0 37 31.11h83.4a37.43 37.43 0 0 0 37-31.11l12.44-71.95 2.79.11q2.67.09 5.34.09c2.36 0 4.72-.06 7.08-.16Zm106.69-127.69c-21.88 20.8-52.55 34.18-84.86 37.54a7.53 7.53 0 0 0-1.35.13 153.47 153.47 0 0 1-19.55.63c-25.13-.81-47.34-8.2-62.47-20.56a50.75 50.75 0 0 0 18.66-46.34c21.59 7.69 49.61 16.58 80.4 14.14a140.68 140.68 0 0 0 52.57-15.13 5 5 0 0 0 .61-.31q27.54-14 53.58-40.38c-4.63 21.72-14.93 48.72-37.59 70.28ZM256 122.31a31.16 31.16 0 1 0-31.16-31.15A31.19 31.19 0 0 0 256 122.31ZM256 75a16.16 16.16 0 1 1-16.16 16.16A16.18 16.18 0 0 1 256 75Z"></path></svg>