<svg xmlns="http://www.w3.org/2000/svg" viewBox="0 0 471.15 509.94" id="dragon"><g data-name="Layer 2"><path fill="none" stroke="#000" stroke-linecap="round" stroke-linejoin="round" stroke-width="20" d="M337.68 139.06l27.62 17.72 1.24 8a82.85 82.85 0 0031.5 53l-.69 81.07a146.17 146.17 0 01-20.4 74c-12 20-26.91 33.69-43.68 43.44M259.69 280v21.75a44.12 44.12 0 0015 33.15h0a44.15 44.15 0 0115 33.15v19.33"></path><path fill="none" stroke="#000" stroke-linecap="round" stroke-linejoin="round" stroke-width="20" d="M365.29 156.78s32.18-36.56 80.61-33.16c0 0 14.2 52-47.86 94.13M398 270s35.84-24 61.65-20c7.25 8.67-12.34 60-64 70M280.23 436.28h0a161.08 161.08 0 0169.13 15.37l.64.3a62.87 62.87 0 0039.69 4.31c13.53-2.9 30-9.52 36.46-24.61M169.38 115.59c3.4-32.14-34.83-42.85-34.83-42.85l11-22.25a16.47 16.47 0 00-3.76-19.56h0a17.63 17.63 0 00-23.37-.33L89.09 55.85 40.27 14.22a17.87 17.87 0 00-22.53-.44h0a16.59 16.59 0 00-2.89 23.43L35.16 63A80.71 80.71 0 0068.32 87.85l21.27 8.62a79.72 79.72 0 0143.68 42.6h0l.19 14.31c.13 10.16 8.84 18.22 19.31 17.88h0c10.34-.34 18.42-8.76 18-18.78l-1.43-36.89h0a205 205 0 00130.77.47l1.42-.47-1.42 36.89c-.39 10 7.7 18.44 18 18.78h0c10.46.34 19.17-7.72 19.31-17.88l.18-14.31h0a79.72 79.72 0 0143.68-42.6l21.27-8.62A80.74 80.74 0 00435.8 63l20.31-25.82a16.59 16.59 0 00-2.89-23.43h0a17.89 17.89 0 00-22.54.44L381.86 55.85 352.49 30.6a17.63 17.63 0 00-23.37.33h0a16.44 16.44 0 00-3.76 19.56l11.05 22.25s-38.25 11-34.85 43.15"></path><path fill="none" stroke="#000" stroke-linecap="round" stroke-linejoin="round" stroke-width="20" d="M137.69,416.24C120.92,406.49,106,392.79,94,372.8a146.17,146.17,0,0,1-20.4-74l-.69-81.07a82.85,82.85,0,0,0,31.5-53l1.24-8,27.62-17.72"></path><path fill="none" stroke="#000" stroke-linecap="round" stroke-linejoin="round" stroke-width="20" d="M234.69,499.92c-43.58.71-92.94-28.14-97.17-85.63C135.09,381.24,209.69,390,234.69,390h0c25,0,101.18-8.71,98.74,24.34C329.19,472,265,500.41,234.69,499.92"></path><path fill="none" stroke="#000" stroke-linecap="round" stroke-linejoin="round" stroke-width="20" d="M209.69 280v21.75a44.15 44.15 0 01-15 33.15h0a44.12 44.12 0 00-15 33.15v19.33M105.66 156.78s-32.18-36.56-80.6-33.16c0 0-14.2 52 47.86 94.13M395.7 320l43.58 10s11.1 51.26-67.81 51.26M73.36 270s-36.09-24-61.89-20c-7.26 8.67 12.14 60 63.79 70L31.88 330s-11.31 51.26 67.6 51.26M190.73 436.28H178.8A113 113 0 00124.86 450l-.56.3a65.08 65.08 0 01-47 5c-12.63-3.31-26.62-10-32.47-23.67"></path><circle cx="169.69" cy="229.97" r="20" fill="none" stroke="#000" stroke-linecap="round" stroke-linejoin="round" stroke-width="20" transform="rotate(-.25 171.377 234.141)"></circle><circle cx="309.69" cy="229.97" r="20" fill="none" stroke="#000" stroke-linecap="round" stroke-linejoin="round" stroke-width="20" transform="rotate(-.25 313.475 232.16)"></circle></g></svg>
