<svg xmlns="http://www.w3.org/2000/svg" viewBox="0 0 128 160" x="0px" y="0px"><g><path d="M63.588,30.4l0-.155-.027-.054a1.59,1.59,0,0,0-2.008-.512.4.4,0,0,1-.23.017l-.045-.01-.041.021a3.647,3.647,0,0,1-2.536.309l-.218-.054.07.214a8.228,8.228,0,0,1,.256,1.109.213.213,0,0,1,0,.044l0,.107.048.038a3.239,3.239,0,0,1,.473.455l.12.144.087-.166c.432-.831,1.758-1.335,3.941-1.5Z"/><path d="M54.454,32.845,54.267,33a5,5,0,0,0-1.48,4.132A2.008,2.008,0,0,0,54.008,38.8l.1.038.055-.087a4.962,4.962,0,0,1,.851-1.012l.08-.072-.058-.089a2.166,2.166,0,0,1-.383-2A1.5,1.5,0,0,1,55.2,35l.135-.081-.109-.113a2.775,2.775,0,0,1-.751-1.72Z"/><path d="M58.752,52.3a5.5,5.5,0,0,0,1.351.17,5.192,5.192,0,0,0,2.686-.741h0c.242-.147.491-.311.747-.48a7.516,7.516,0,0,1,2.633-1.3c2.416-.442,4.133.2,6.294,1.136l.089.039.059-.077c.179-.229.368-.454.557-.678.265-.313.539-.638.772-.97l.145-.207-.252.009a2.943,2.943,0,0,1-2.385-1.333l-.076-.1-.1.079a3.279,3.279,0,0,1-4.257-.244l-.092-.077-.081.088c-1.355,1.462-2.674,1.893-4.029,1.322l-.078-.033-.059.06a2.494,2.494,0,0,1-2.866.2,2.306,2.306,0,0,1-1.455-2.235l.016-.107-.1-.032a1.658,1.658,0,0,1-.98-.8l-.094-.159-.113.147a5.546,5.546,0,0,1-.9.93l-.064.052.021.078a.97.97,0,0,1,.024.438,11.924,11.924,0,0,1-.684,2.319l-.025.059.033.053A5.313,5.313,0,0,0,58.752,52.3Z"/><path d="M63.2,25.088a3.632,3.632,0,0,0-1.655-2.783,4.863,4.863,0,0,0-4.032-.834h0a11.329,11.329,0,0,0-2,.9c-.4.212-.812.431-1.233.614l-.064.027-.01.07a4.632,4.632,0,0,0,.616,2.858l.17.284.061-.326c.292-1.57,1.283-3.37,3.12-3.37l.126,0a4.444,4.444,0,0,1,4.154,3.516l.059.218.154-.165a4.934,4.934,0,0,1,.616-.564l.1-.081-.084-.1A.436.436,0,0,1,63.2,25.088Z"/><path d="M54.868,30.885c-.027.077-.061.175-.084.267l-.013.057.037.048a.4.4,0,0,1,.034.059l.034.069h.077a.366.366,0,0,1,.052,0l.063.012.047-.046a.219.219,0,0,0,.027-.035,2.632,2.632,0,0,1,2.4-.458l.215.053L57.7,30.7c-.211-.691-.508-1.106-.884-1.234a1.091,1.091,0,0,0-.992.236A2.69,2.69,0,0,0,54.868,30.885Z"/><path d="M61.693,26.874l-.1-.419c-.362-1.514-1.447-2.986-3.079-2.986-.072,0-.144,0-.217.008-1.8.14-2.413,1.992-2.393,3.536v.07l.061.035a2.368,2.368,0,0,0,.612.248l.129.033.025-.131a1.841,1.841,0,0,1,.325-.763,2.232,2.232,0,0,1,1.667-.928,3.551,3.551,0,0,1,2.66,1Z"/><path d="M55.835,31.982h0a1.171,1.171,0,0,0-.415,1.2,1.556,1.556,0,0,0,.927,1.271.457.457,0,0,1,.184.1l.049.048.067-.015a3.358,3.358,0,0,0,1.584-.984,6.428,6.428,0,0,1,.605-.521l.1-.077-.081-.1a.365.365,0,0,1-.053-.08,1.808,1.808,0,0,0-1.208-.983A2.11,2.11,0,0,0,55.835,31.982Z"/><path d="M57.663,39.025l0-.04a1.047,1.047,0,0,0-.3-.983.941.941,0,0,0-.96-.04,2.992,2.992,0,0,0-1.358,1.274,14.41,14.41,0,0,0-1.062,1.987l-.092.206.223-.03a3.731,3.731,0,0,0,2.181-.906c.189-.18.37-.367.551-.553.21-.218.426-.443.653-.651l.027-.025.009-.037a.442.442,0,0,1,.1-.173Z"/><path d="M43.719,87.893H43.8l.034-.07c.053-.109.1-.216.152-.323.076-.161.15-.32.234-.481.356-.7.77-1.384,1.172-2.049l.274-.456-.056-.068a1.151,1.151,0,0,1-.158-.741v-.034l-.017-.029c-.359-.606-1.561-.79-2.5-.772-.82.02-1.783.206-2.027.668a.519.519,0,0,0,.05.549.759.759,0,0,1-.057.906c-.033.076-.072.157-.113.244-.246.516-.583,1.223-.2,1.63a3.042,3.042,0,0,0,2.1,1.239,2,2,0,0,0,.757-.156A.765.765,0,0,1,43.719,87.893Z"/><path d="M41.3,42.746a5.288,5.288,0,0,1-3.815.54c-.686-.18-1.339-.453-2-.679a11.5,11.5,0,0,0,6.12,4.747,1,1,0,0,1-.406,1.951c-.033,0-.073.014-.113.014-.68-.007-3.636-.16-1.951.952a15.878,15.878,0,0,0,1.584.959A20.731,20.731,0,0,0,44.5,52.861c4.682,1.292,8.3-.392,9.583-4.787a6.692,6.692,0,0,1-1.485.206.6.6,0,0,1-.6-.6c.014-.127.027-.247.04-.367-1.584.207-3.642-.479-3.3-2.051a3.369,3.369,0,0,1-1.771-1.5.593.593,0,0,1,.04-.652,7.12,7.12,0,0,1-1.538-1.492,1.119,1.119,0,0,1-.174-1.2,1.007,1.007,0,0,1,.547-.412,6.325,6.325,0,0,1-.507-3.65.611.611,0,0,1,.6-.6c.046,0,.086.007.126.007a5.981,5.981,0,0,1,.187-2.71c.559-1.1,1.665-1.665,2.317-2.737a6.891,6.891,0,0,1,2.83-2.944c-1.039-1.664-3.123-2.11-4.814-3.023a1.059,1.059,0,0,1-.68.107c0,.073,0,.146.007.22,0,.006-.007.019-.007.026a1.076,1.076,0,0,1-1.5,1.165,21.8,21.8,0,0,1-2.93-1.6,7.925,7.925,0,0,0,1.219,5.147.931.931,0,0,1-.36,1.325.791.791,0,0,1-1.019.313,17.044,17.044,0,0,1-3.5-1.658A8.288,8.288,0,0,0,39.87,34.21a1.044,1.044,0,0,1,.154,1.052c0,.619-.473,1.225-1.206.952-1.092-.413-2.191-.806-3.269-1.232,1.391,2.517,2.776,5.387,5.613,5.76C42.374,40.9,42.427,42.753,41.3,42.746Zm2.4-15.322c.127-.1.42.04.9.22.233.086.513.193.813.273a1.253,1.253,0,0,0,.619.046l.013-.033a1.243,1.243,0,0,0,.054-.12.139.139,0,0,1-.007-.053.2.2,0,0,1,.013-.047l.013-.126c.007-.087.02-.153.02-.247a8.447,8.447,0,0,1,.1-.958c.087-.586.367-.946.5-.873s.18.366.293.873c.046.253.106.572.146.945.007.093.007.207.014.306v.16c-.007.074-.02.16-.034.24s-.026.16-.046.24-.04.1-.06.153l-.033.073L47,28.529,47,28.536v.007l-.067.1-.02.026a1.736,1.736,0,0,1-.226.207,1.354,1.354,0,0,1-.953.206,2.267,2.267,0,0,1-.672-.193,3.38,3.38,0,0,1-.892-.579,1.917,1.917,0,0,1-.447-.56C43.639,27.584,43.653,27.477,43.7,27.424ZM41.861,38.318c-.113,0-.179,0-.253-.006-.139-.014-.279-.021-.419-.034-.18-.013-.293-.046-.433-.066a5.017,5.017,0,0,1-.719-.194c-.779-.273-1.312-.446-1.292-.605s.553-.26,1.452-.174c.206.014.439.047.666.047.106,0,.219.007.339.007l.406-.02h.027v-.014l.013-.186.007-.24a1.722,1.722,0,0,0-.047-.339,6.358,6.358,0,0,0-.652-1.525A6.228,6.228,0,0,1,40.35,33.5a2.292,2.292,0,0,1-.02-1.125c.087-.26.173-.387.253-.367.166.027.16.546.513,1.226a12.931,12.931,0,0,0,.752,1.212,5.432,5.432,0,0,1,.859,1.817,2.914,2.914,0,0,1,.067.62l-.014.233c-.013.153-.02.18-.033.28a2.6,2.6,0,0,1-.053.279,1.43,1.43,0,0,1-.093.247.77.77,0,0,1-.26.273A.943.943,0,0,1,41.861,38.318Zm1.532,7.991a5.339,5.339,0,0,1,1.591.772,2.338,2.338,0,0,1,.38.353l.093.1.02.027.014.013.04.053.026.047.127.186a3.232,3.232,0,0,1,.139.353,1.777,1.777,0,0,1,.054.38,1.423,1.423,0,0,1-.24.719,2.619,2.619,0,0,1-.919.766,4.978,4.978,0,0,1-.632.3,2.237,2.237,0,0,0,.592.213c.26.053.526.1.8.133l.207.02c.006.006.12.013.173.02.14.007.273.013.413.026a8.081,8.081,0,0,0,2.663-.179c.087-.02.173-.047.26-.067s.16-.067.24-.1c.153-.073.306-.113.439-.193.24-.166.493-.273.659-.413.333-.266.56-.4.62-.353s-.054.273-.333.66a4.818,4.818,0,0,1-.613.619,4.213,4.213,0,0,1-.466.3c-.08.054-.166.107-.26.16s-.193.08-.293.12a7.548,7.548,0,0,1-2.963.46c-.133,0-.266,0-.406-.007-.08,0-.113,0-.24-.007l-.213-.013c-.286-.027-.593-.06-.912-.12a3.451,3.451,0,0,1-.992-.346,2.057,2.057,0,0,1-.893-.879l-.286-.52.566-.233c.166-.073.34-.139.513-.213a3.607,3.607,0,0,0,1.365-.772.632.632,0,0,0,.066-.133c-.013-.02-.006-.047-.013-.074a.089.089,0,0,1-.007-.059l-.119-.194-.014-.026-.013-.014-.053-.059a1.194,1.194,0,0,0-.24-.247,9.836,9.836,0,0,0-2.564-1.2,4.969,4.969,0,0,1-1.824-1.113,1.492,1.492,0,0,1-.333-.492c-.047-.12-.06-.2-.027-.22s.1,0,.207.08a4.746,4.746,0,0,0,.432.3,6.8,6.8,0,0,0,1.8.685C42.434,46.043,42.887,46.156,43.393,46.309Z"/><path d="M23.023,65.141a2.777,2.777,0,0,1,3.15-.047c2.577,1.645,5.034,3.429,7.538,5.194,5.507,3.9,12.179,6.559,18.838,4.115a1.7,1.7,0,0,1,.18-.046c.22-.293.439-.593.653-.886a14.379,14.379,0,0,1-1.9-.173,6.891,6.891,0,0,1-2.83-1.145L47.9,71.6l.519-.739a2.231,2.231,0,0,1,.186-.227c-.146.02-.286.04-.439.067-.207.033-.42.066-.633.093l-.659.02-.686.02a4.125,4.125,0,0,1-.839-.02c-.779-.073-1.578-.153-2.41-.233l-.313-.027-.08-.006c-.014-.007.02-.047.026-.06l.094-.14c.126-.187.253-.373.372-.566.253-.373.513-.759.773-1.145.14-.187.286-.373.426-.56.087-.106.173-.22.266-.326.194-.207.38-.426.586-.639A17.566,17.566,0,0,1,46.4,65.92c.906-.766,1.938-1.459,2.844-2.284.233-.207.472-.407.7-.62l.686-.685c.48-.447.9-.973,1.352-1.485A25.1,25.1,0,0,0,53.741,58.5a.27.27,0,0,0-.1-.02l-.08-.087h-.026l-.107.074-.053.033-.207-.033a1.727,1.727,0,0,1-.752-.48,1.892,1.892,0,0,1-.366-.679,3.144,3.144,0,0,1-.107-1.085c.047-.58.167-.919.32-.939s.319.326.473.852a5.2,5.2,0,0,0,.286.812.832.832,0,0,0,.493.473l.093.16.013.073.034-.066a.711.711,0,0,0,.266-.074,1.266,1.266,0,0,1,.173-.066c.073-.02.153-.053.226-.073l.16-.06a37.229,37.229,0,0,0,2-3.9A5.812,5.812,0,0,1,54.5,51.8c-2.683,3.676-7.631,4.342-12.512,2.237-1.971-.852-5-1.971-5.733-4.228-.387-1.185.392-1.8,1.451-2.131a20.587,20.587,0,0,1-5.081-5.66c-4.927-1.219-10.268.16-12.612,5.034-1.791,3.729-1.039,8.89-.972,12.945.073,4.708-.027,9.882,1.2,14.457a14.459,14.459,0,0,0,2.7,5.114,23.413,23.413,0,0,1-1.378-6.193C21.318,70.9,20.819,66.939,23.023,65.141Zm24.425-8.424a1.027,1.027,0,0,1,.373-.48c.113-.079.207-.106.28-.066s.1.126.107.26.006.313.013.466a2.046,2.046,0,0,0,.426,1.152c.639.832,1.605,1.3,1.505,1.618-.04.14-.346.213-.819.1a2.855,2.855,0,0,1-1.585-1.046,2.29,2.29,0,0,1-.44-1.065A1.789,1.789,0,0,1,47.448,56.717Zm-2.637,4.988a3.156,3.156,0,0,1,1.272-1.838c.486-.333.806-.367.906-.26s-.1.433-.34.819a4.946,4.946,0,0,0-.739,1.525,2.236,2.236,0,0,0,.193,1.505c.193.4.38.686.273.812-.08.113-.446.06-.9-.326a2.244,2.244,0,0,1-.592-.892A2.4,2.4,0,0,1,44.811,61.705ZM25.627,51.43a2.464,2.464,0,0,1,.546-1.332,3.153,3.153,0,0,1,2.091-1.159c.626-.06.992.153.965.293-.013.167-.339.26-.765.473A4.4,4.4,0,0,0,27.052,50.8a2.1,2.1,0,0,0-.4.759,1.407,1.407,0,0,0,.014.666c.026.093.066.173.086.267a1.807,1.807,0,0,0,.12.253c.067.153.08.259.027.319s-.16.053-.32.007a1.034,1.034,0,0,1-.273-.133,2.532,2.532,0,0,1-.333-.327A1.774,1.774,0,0,1,25.627,51.43Zm1.731,11.826c.06.207.426.36.373.513-.007.08-.08.146-.193.2A.787.787,0,0,1,26.9,63.9a1.374,1.374,0,0,1-.659-.706,2.028,2.028,0,0,1-.147-1.079,1.988,1.988,0,0,1,1.039-1.591c.5-.213.819-.053.826.08.019.166-.194.319-.36.566a2.332,2.332,0,0,0-.386,1.072A1.649,1.649,0,0,0,27.358,63.256Zm5.867.946a4.069,4.069,0,0,0-1.246.606,1.67,1.67,0,0,0-.452,1.1c-.027.18-.054.366-.08.506s-.087.22-.16.24-.167-.027-.26-.133a1.239,1.239,0,0,1-.286-.506,1.99,1.99,0,0,1-.093-.926,1.77,1.77,0,0,1,.579-1.119,2.288,2.288,0,0,1,1.052-.519,2.851,2.851,0,0,1,.866-.047c.473.06.746.213.746.36S33.624,64.062,33.225,64.2Zm9.309,1.451A4.4,4.4,0,0,0,41.3,66.972a1.873,1.873,0,0,0-.18,1.551c.034.1.074.187.107.28s.1.18.126.253c.067.153.08.26.027.32s-.16.053-.32.006a1.427,1.427,0,0,1-.619-.439A2.025,2.025,0,0,1,40,67.837a2.552,2.552,0,0,1,.32-1.411,3.2,3.2,0,0,1,1.891-1.5c.606-.153,1-.019,1.005.12C43.233,65.214,42.927,65.367,42.534,65.653Zm-2.677-4.941A3.592,3.592,0,0,1,42.221,58.7c.826-.16,1.3.107,1.272.24-.02.167-.466.22-1.019.506a3.894,3.894,0,0,0-1.6,1.751,2.2,2.2,0,0,0-.133,2.085,1.633,1.633,0,0,0,.526.413c.18.086.3.159.286.239s-.113.153-.326.2a1.425,1.425,0,0,1-1.012-.26,1.888,1.888,0,0,1-.712-1.418A3.541,3.541,0,0,1,39.857,60.712Zm-.912,3.949c0,.173-.553.16-1.066.386a3.834,3.834,0,0,0-1.824,1.472,2.18,2.18,0,0,0-.386,1.1,1.289,1.289,0,0,0,.313.8c.113.093.213.186.306.279s.2.14.273.207c.153.12.233.233.22.306s-.147.113-.367.107a1.664,1.664,0,0,1-.406-.053,5.2,5.2,0,0,1-.519-.22,1.962,1.962,0,0,1-.853-1.339,2.758,2.758,0,0,1,.473-1.791,3.566,3.566,0,0,1,2.61-1.645,1.792,1.792,0,0,1,.946.133C38.852,64.5,38.951,64.581,38.945,64.661Zm-.28-5.826c.007.159-.413.279-1.039.419a5.036,5.036,0,0,0-.972.3,1.232,1.232,0,0,0-.666.679,2.061,2.061,0,0,0-.066.246v.18l.079.047-.086.006-.1.074a2.4,2.4,0,0,0-.02.532,2.015,2.015,0,0,0,.273.859,2.262,2.262,0,0,0,.2.287,1.109,1.109,0,0,0,.206.226c.153.127.22.233.193.306s-.146.107-.346.1a1.469,1.469,0,0,1-.846-.393,2.288,2.288,0,0,1-.7-1.212,3.083,3.083,0,0,1-.047-.832l.007-.106.006-.027.007-.053.007-.047.033-.18a3.6,3.6,0,0,1,.146-.459A2.329,2.329,0,0,1,35.5,59a2.292,2.292,0,0,1,.773-.413,3.318,3.318,0,0,1,1.3-.126C38.266,58.522,38.665,58.681,38.665,58.835Zm-1.032-5.721c.633.087.912.38.866.5-.054.166-.387.18-.819.293a3.092,3.092,0,0,0-1.412.866,1.525,1.525,0,0,0-.386.665.684.684,0,0,0,.08.5c.039.073.1.126.146.206s.153.127.2.187c.113.113.166.206.14.279s-.134.114-.293.127a.686.686,0,0,1-.3-.02,1.755,1.755,0,0,1-.433-.2,1.369,1.369,0,0,1-.572-1.158,2.1,2.1,0,0,1,.579-1.339A2.713,2.713,0,0,1,37.633,53.114Zm-2.684-2c-.046.153-.479.153-1.118.113-.32-.013-.7-.04-1.079-.02a1.509,1.509,0,0,0-.919.286.686.686,0,0,0-.06.074,1.621,1.621,0,0,0-.013.885,5.238,5.238,0,0,0,.279.919c.1.26.207.46.267.593s.14.253.086.313-.14.113-.346.02a1.794,1.794,0,0,1-.659-.513,3.347,3.347,0,0,1-.6-1.059,2.668,2.668,0,0,1-.167-.746,1.821,1.821,0,0,1,.167-.959L30.8,51l.006-.013c.074-.094.147-.194.234-.287a2.215,2.215,0,0,1,1.731-.526A4.818,4.818,0,0,1,34,50.458C34.65,50.711,34.989,50.977,34.949,51.117ZM30.2,46.609a2.069,2.069,0,0,1,.8-1.239,2.329,2.329,0,0,1,2.437-.186c.546.313.713.665.626.772-.1.14-.426.033-.879-.02a2.186,2.186,0,0,0-1.511.333,1.582,1.582,0,0,0-.6,1.3c.007.1.007.2.007.3s.027.2.027.279c.006.16-.027.267-.094.3s-.173,0-.3-.106a1.215,1.215,0,0,1-.207-.207,3.979,3.979,0,0,1-.206-.386A1.973,1.973,0,0,1,30.2,46.609Zm.246,11.453a4.075,4.075,0,0,1,1.119-.979,2.386,2.386,0,0,1,1.232-.326,1.139,1.139,0,0,1,.493.093.694.694,0,0,1,.326.18c.16.133.206.24.173.306-.086.147-.459.054-.912.213a3.4,3.4,0,0,0-1.545,1.2,3.82,3.82,0,0,0-.806,1.811c-.086.426.133.853-.013.939-.067.04-.18.007-.333-.093a.626.626,0,0,1-.24-.273,1.945,1.945,0,0,1-.126-.227c-.027-.086-.054-.166-.074-.259A3.153,3.153,0,0,1,30.441,58.062Zm-.879-3.616c-.013.08-.113.133-.293.173a2.889,2.889,0,0,0-.619.167,1.92,1.92,0,0,0-.679.453,2.335,2.335,0,0,0-.48.872A2.694,2.694,0,0,0,27.651,58c.233.46.506.746.413.893-.053.113-.519.086-1.052-.42a2.795,2.795,0,0,1,.273-4A2.145,2.145,0,0,1,28.517,54a1.466,1.466,0,0,1,.826.187C29.5,54.28,29.576,54.373,29.562,54.446ZM25.008,44.385a1.874,1.874,0,0,1,.119-.36,2.2,2.2,0,0,1,1.059-.959c1.7-.752,3.177-.12,3.043.173-.026.16-.386.207-.832.313a8.267,8.267,0,0,0-1.731.533,1.859,1.859,0,0,0-.633.439.656.656,0,0,0-.12.486,2,2,0,0,1,.053.28,1.637,1.637,0,0,1,.074.246c.033.147.026.26-.027.313s-.16.04-.313-.039a1.444,1.444,0,0,1-.253-.174,2.389,2.389,0,0,1-.273-.333,1.578,1.578,0,0,1-.18-.559A2.182,2.182,0,0,1,25.008,44.385Zm-2.025,3.123a2.3,2.3,0,0,1,.18-.367,1.908,1.908,0,0,1,.286-.319,2.394,2.394,0,0,1,1.279-.48,4.3,4.3,0,0,1,.945.027c.526.073.833.213.839.366s-.306.3-.792.426a4.918,4.918,0,0,0-1.545.52.87.87,0,0,0-.266.566c-.034.266-.054.546-.06.785-.027.473-.06.84-.22.866s-.373-.213-.559-.732a2.954,2.954,0,0,1-.193-.979A2.163,2.163,0,0,1,22.983,47.508Zm-1,4.9A2.086,2.086,0,0,1,22.537,52a2.013,2.013,0,0,1,.559-.167,3.592,3.592,0,0,1,.453-.013,1.994,1.994,0,0,1,.326.087c.174.066.26.139.254.213s-.1.153-.247.226a2.658,2.658,0,0,1-.26.1c-.093.047-.193.1-.3.146a1.43,1.43,0,0,0-.793,1.306,2,2,0,0,0,.194.879,1.511,1.511,0,0,0,.472.539,1.541,1.541,0,0,0,.506.26c.16.06.253.133.26.206s-.087.16-.24.233a1.191,1.191,0,0,1-.819.04,1.9,1.9,0,0,1-1.052-.719,2.5,2.5,0,0,1-.446-1.465A2.121,2.121,0,0,1,21.978,52.409Zm-.134,7.524a2.517,2.517,0,0,1,.107-.719,1.762,1.762,0,0,1,.406-.719,2.657,2.657,0,0,1,.966-.6c.532-.207.865-.293.972-.174s-.113.46-.546.846a3.894,3.894,0,0,0-.6.6,1.388,1.388,0,0,0-.18.833,2.335,2.335,0,0,0,.213.839,3.147,3.147,0,0,0,.466.672c.273.34.653.553.586.706-.047.12-.4.26-1.052-.066A2.491,2.491,0,0,1,21.844,59.933Z"/><path d="M39.362,88.116h0a4.742,4.742,0,0,1-.4-.572l-.05-.083-.094.028a.907.907,0,0,1-.526,0l-.189-.06.028.2a40.083,40.083,0,0,0,.889,4.461l.037.141c.5,1.879.966,3.653,1.4,5.471l.136.568.108-.574a42.138,42.138,0,0,1,2.171-7.65l.069-.174-.188,0h-.066A4.405,4.405,0,0,1,39.362,88.116Z"/><path d="M73.137,29.014l-.192-.05.037.2a3.732,3.732,0,0,1-.013,1.412l-.027.139.142.009c.421.026.841.053,1.273.073h.222l0-.122a1.724,1.724,0,0,0-.431-1.269,1.319,1.319,0,0,0-.972-.384A.14.14,0,0,1,73.137,29.014Z"/><path d="M44.479,19.534c.282.365.566.732.844,1.106l.031.04.05.008a.827.827,0,0,1,.68.6c.391,1.248,1.756,1.811,2.961,2.306.264.108.517.213.749.32a6.636,6.636,0,0,1,3.358,2.732.911.911,0,0,1,.106.346l.009.086.086.021a4.147,4.147,0,0,0,.974.091h.261l-.163-.2a5.618,5.618,0,0,1-1.1-4.333.4.4,0,0,0,.02-.059.473.473,0,0,1,.313-.374,13.258,13.258,0,0,0,1.63-.761,8,8,0,0,1,2.587-.99,6.173,6.173,0,0,1,3.244.537,4.732,4.732,0,0,1,3.007,3.845l.016.169.157-.066a4.032,4.032,0,0,1,1.019-.3,6.281,6.281,0,0,1,1.443-.041l.086.009.038-.077A.13.13,0,0,0,66.9,24.5c.586-1.149,2.651-4.783,5.307-4.465a3.637,3.637,0,0,1,.8.181l.141.049.024-.149a15.014,15.014,0,0,0-.116-4.005l-.062-.519-.182.191q-.19.2-.366.376c-.306.316-.571.588-.785.84-.077.09-.153.17-.227.247a3.133,3.133,0,0,0-.357.417c-.107.12-.256.253-.381.236-.1-.023-.2-.143-.282-.37a2.009,2.009,0,0,1,.019-1.087,7.4,7.4,0,0,1,1.756-2.912,6.733,6.733,0,0,0,.516-.625,5.927,5.927,0,0,0,.364-.542c.2-.352.433-.759.605-1.115.057-.123.116-.24.175-.344l.016-.052a1.716,1.716,0,0,0-.318-1.231,1.367,1.367,0,0,0-1.212-.692c-1.02.113-1.791,1.815-2.252,2.833-.072.158-.134.295-.184.4a15.779,15.779,0,0,1-1.989,2.835,13.177,13.177,0,0,0-2.257,3.441.908.908,0,0,1-.834.59h-.044a.9.9,0,0,1-.811-.44l-.031-.04a10.107,10.107,0,0,0-5.072-1.994,11.217,11.217,0,0,1-4.237-1.412,3.772,3.772,0,0,1-1.668-1.774,6.139,6.139,0,0,1-.334-1.49l-.023-.247c-.089-.964-.255-2.758-1.254-3.173-.578-.238-1.331.024-2.243.779l-.084.07.057.092a9.742,9.742,0,0,1,.9,1.952c.17.5.308,1.006.43,1.448.05.179.1.346.141.5.216.687.379,1.229.513,1.709.042.149.081.295.12.438l.086.315c.067.229.133.442.2.64.126.428.214.773.27,1.056.17.8.067.906.069.908s-.168-.01-.632-.628c-.152-.209-.385-.534-.639-.936-.113-.193-.24-.4-.369-.606-.055-.106-.109-.214-.165-.326s-.122-.246-.186-.372c-.28-.564-.53-1.087-.764-1.6-.152-.349-.281-.675-.409-1-.12-.3-.238-.6-.369-.9-.049-.114-.105-.264-.168-.435-.3-.8-.745-2.01-1.449-2.244a.854.854,0,0,0-.758.127c-.662.431-.313,1.371-.032,2.127.075.2.146.392.186.544.022.091.041.184.058.277s.038.194.06.283.029.159.043.238.032.186.051.28c.056.239.1.474.15.7l.043.208c.027.122.051.244.072.361l.018.084c.044.131.081.256.126.405s.086.269.126.4.075.246.115.369c.392,1.1.663,1.793.907,2.315.3.743.225.868.226.87s-.144.039-.748-.511a9.174,9.174,0,0,1-1.607-2.112q-.123-.253-.26-.522l-.147-.292c-.043-.081-.083-.164-.123-.248-.029-.062-.058-.122-.083-.168-.026-.079-.055-.156-.082-.233s-.057-.159-.085-.24q-.147-.438-.3-.9-.166-.5-.347-1.033c-.036-.114-.074-.228-.113-.345a7.232,7.232,0,0,1-.454-2.125,2.872,2.872,0,0,1,.09-.8l.012-.054-.032-.046a.855.855,0,0,1-.116-.222c-.255-.716-1.31-1.8-2.109-1.73-.259.023-.589.18-.7.8a11.506,11.506,0,0,0-.189,2.2,12.109,12.109,0,0,0,.331,3.081A17.368,17.368,0,0,0,44.479,19.534Z"/><path d="M74.385,48.2l.132.044.029-.136a16.169,16.169,0,0,0,.195-5.356,23.823,23.823,0,0,0-.591-2.938c-.171-.7-.348-1.421-.475-2.158a2.837,2.837,0,0,1-.02-.81l.03-.314-.237.209c-.245.217-.526.443-.885.712a.461.461,0,0,1-.554-.074c-.147-.172-.3-.364-.449-.555l-.1-.13-.1.133a3.386,3.386,0,0,1-1.28,1l-.137.07.1.12c.148.184.31.362.467.535.184.2.376.413.538.626l.019.031.054.037a3.875,3.875,0,0,1,1.761,2.116l.035.087.092-.01a.5.5,0,0,1,.454.2,2.012,2.012,0,0,1,.3,2.359c-.745,1.46-2.442.84-4.085.241a7.25,7.25,0,0,0-2.238-.581,3.885,3.885,0,0,0-2.8.885,4.924,4.924,0,0,1-1.506.837c-.454.157-1.074.371-1.483.078a10.233,10.233,0,0,1-2.866-3.838l-.205-.39-.03.439a8.594,8.594,0,0,1-.17,1.149l-.005.024,0,.024a.436.436,0,0,1-.044.263l-.01.032a6.618,6.618,0,0,1-.457,1.509l-.012.03,0,.031c.058.747.464,1.2,1.067,1.2h.062a.37.37,0,0,1,.319.106.462.462,0,0,1,.123.35v.021l.006.02a.429.429,0,0,1-.042.342c-.272.477-.019,1.053.645,1.468a2.407,2.407,0,0,0,1.215.379.931.931,0,0,0,.808-.362.622.622,0,0,1,.178-.16l.037-.035a.439.439,0,0,1,.607-.148c1.551.88,2.666-.213,3.6-1.311L66.4,46.5h0l.105.075.031-.029a.513.513,0,0,1,.368-.22.416.416,0,0,1,.311.15,2.951,2.951,0,0,0,2.11,1.091h.025a2.337,2.337,0,0,0,1.708-.8l.05-.042a.559.559,0,0,1,.464-.222.371.371,0,0,1,.3.233c.438.9,1.257,1.751,2.261,1.456A.371.371,0,0,1,74.385,48.2Z"/><path d="M73.635,23.492l.2.292.029-.351a3.056,3.056,0,0,0-.168-1.44,1.4,1.4,0,0,0-.174-.314l-.038-.054h-.03a.821.821,0,0,1-.333-.316l-.042-.043a2.159,2.159,0,0,0-2.185.043,8.236,8.236,0,0,0-3.052,3.446l-.059.111.111.058a2.279,2.279,0,0,1,.555.391l.172.173.04-.241a3.273,3.273,0,0,1,2.857-2.719A2.25,2.25,0,0,1,73.635,23.492Z"/><path d="M46.007,82.082a.5.5,0,0,0,.3-.323,1.589,1.589,0,0,0,.053-.9l0-.013c-.37-1.106-1.835-1.3-2.454-1.327a5.26,5.26,0,0,0-2.531.367,1.3,1.3,0,0,0-.713.707,1.032,1.032,0,0,0,.13.805.5.5,0,0,0,.579.239c.1-.027.186-.05.3-.07a5.419,5.419,0,0,1,3.9.474.494.494,0,0,0,.441.043Z"/><path d="M71.985,25.775a.956.956,0,0,0-1.064.681l-.027.1.085.048a4.407,4.407,0,0,1,1.29,1.068l.11.137.093-.148a.585.585,0,0,1,.09-.118l.021-.029a.1.1,0,0,0,.011-.029c.12-.2.273-.468.441-.777l.02-.035-.005-.039A1.121,1.121,0,0,0,71.985,25.775Z"/><path d="M64.542,30.193l-.047.163.169,0c.965-.011,1.867.022,2.527.05.256.01.475.019.645.023,1.378.027,2.786.126,4.028.213l.106.007.025-.1a2.718,2.718,0,0,0-.466-2.289,3.674,3.674,0,0,0-2.675-1.441l-.031,0-.027.012a.509.509,0,0,1-.417,0l-.03-.014-.034,0a3.9,3.9,0,0,0-.567.084A4.354,4.354,0,0,0,64.542,30.193Z"/><path d="M53.214,46.731v.021a1.519,1.519,0,0,0-.031.167l-.04.247.172-.028a4.924,4.924,0,0,0,1.175-.328l.042-.018.021-.041a.686.686,0,0,1,.645-.379c.02,0,.039,0,.06,0l.043,0,.035-.023a4.688,4.688,0,0,0,1.442-1.574l.008-.046c.033-.078.065-.16.1-.242l.058-.154.009-.035c0-.039.008-.077.013-.116s.01-.083.014-.124l.019-.23-.2.109a1.35,1.35,0,0,1-1.428.038l-.056-.034-.06.026c-.934.419-2.106.808-2.895.1l-.044-.04-.06.009a1.542,1.542,0,0,1-1.258-.35,3.514,3.514,0,0,1-1.14-2.416l-.005-.082-.077-.029a3.163,3.163,0,0,1-1.962-2.836,1.825,1.825,0,0,1,1.314-1.8l.116-.04-.038-.118a3.832,3.832,0,0,1,.151-3.158,2.587,2.587,0,0,1,1.914-1.167l.106-.016v-.108a1.674,1.674,0,0,1,1.53-1.832h.066a1.919,1.919,0,0,1,.954.258l.115.065.059-.119a3.544,3.544,0,0,1,.962-1.187,3.2,3.2,0,0,1,.7-.4L56,28.6l-.239-.124a2.674,2.674,0,0,0-.543-.229,4.087,4.087,0,0,0-.974-.117c-.1,0-.206-.007-.313-.013a4.03,4.03,0,0,1-.88-.136l-.032,0a.162.162,0,0,0-.071.016c-1.959.411-2.807,1.8-3.705,3.262-.148.243-.3.49-.457.735a1.91,1.91,0,0,1-.636.625c-.989.56-.993,1.883-1,2.947,0,.308,0,.6-.025.845a.518.518,0,0,1-.18.37.561.561,0,0,1-.437.091h-.15l-.007.118a4.714,4.714,0,0,0,.542,2.73.4.4,0,0,1,.034.372l-.027.066.043.056a.51.51,0,0,1,.056.522.421.421,0,0,1-.4.224l-.044.24a.728.728,0,0,1,.078.105,1.043,1.043,0,0,0,.118.156,14.929,14.929,0,0,0,1.236,1.076l.034.026h.049a.53.53,0,0,1,.488.407.405.405,0,0,1-.245.48.528.528,0,0,1-.049.033l-.155.071.115.126a2.053,2.053,0,0,0,1.362.707.469.469,0,0,1,.427.339.493.493,0,0,1-.123.519l-.036.047a.541.541,0,0,0,.121.661,3.278,3.278,0,0,0,2.6.108.418.418,0,0,1,.52.048.513.513,0,0,1,.131.581Z"/><path d="M70.439,31.557a40.268,40.268,0,0,0-4.965-.143c-.277.015-.562.025-.854.035a12.349,12.349,0,0,0-3.542.459l-.734.239h.745c.064.02.64.279,1.061.468l.118.052.072-.011a.47.47,0,0,1,.079-.007c.253.026.508.048.793.065a.426.426,0,0,1,.241.02l.041.009c1.464.1,2.956.092,4.4.082,1.567-.005,3.18-.017,4.761.111l.4.035a15.184,15.184,0,0,0,1.774.1,2.087,2.087,0,0,0,.33.027,1.847,1.847,0,0,0,1.528-.849l.081-.109-.215-.132-.039-.015a14.4,14.4,0,0,0-2.755-.263C72.648,31.711,71.525,31.633,70.439,31.557Z"/><path d="M73.144,25.035a1.732,1.732,0,0,0-.652-1.39,1.348,1.348,0,0,0-1.265-.095,2.321,2.321,0,0,0-1.647,2.418l.015.08.079.02c.083.019.159.045.236.07l.116.038.041-.115a1.724,1.724,0,0,1,1.006-1.075,2.306,2.306,0,0,1,1.887.165l.191.1Z"/><path d="M64.347,25.984A3.983,3.983,0,0,0,62.4,28.428l-.042.146.151.013a2.423,2.423,0,0,1,1.26.5l.124.095.066-.143a5.279,5.279,0,0,1,3.457-3.066l.323-.072-.291-.159A3.645,3.645,0,0,0,64.347,25.984Z"/><path d="M66.919,35.37l-.048.117A5.217,5.217,0,0,1,65.921,37h0a.419.419,0,0,1-.3.133.524.524,0,0,1-.37-.141,1.569,1.569,0,0,0-2.274-.269c-.429.254-.893.522-1.381.76a8.625,8.625,0,0,1-1.247.444,10.743,10.743,0,0,0-1.025.346l-.144.059.09.128a9.37,9.37,0,0,0,2.691,2.627l.138.036.049-.116c.174-.194.336-.411.507-.64a3.735,3.735,0,0,1,1.4-1.336c.834-.339,1.611.32,2.328,1.084a.443.443,0,0,1,.1.157l.016.039.036.022a.392.392,0,0,1,.124.109l.048.063.078-.016a1.234,1.234,0,0,0,.119-.033c.027-.008.052-.016.073-.02a3.808,3.808,0,0,1,1.915.321c.143.05.284.1.42.141l.134.042.027-.138a3.04,3.04,0,0,1,.479-1.322l.068-.083-.072-.079c-.078-.088-.158-.175-.237-.261a5.386,5.386,0,0,1-.862-1.111.571.571,0,0,1-.034-.425.378.378,0,0,1,.19-.226c.1-.05.206-.1.309-.144a2.717,2.717,0,0,0,1.349-1l.044-.031v-.136l-.057-.037a1.634,1.634,0,0,0-.842-.288c-.532-.018-1.076.008-1.631-.033a3.761,3.761,0,0,1-1.142-.21Z"/><path d="M63.379,33.685l-.037,0-.258.138-.021.012a.433.433,0,0,1-.118.06l-.2.1a13.164,13.164,0,0,0-2.811,1.792,9.961,9.961,0,0,1-1.855,1.355l-.155.087.134.116a1.835,1.835,0,0,1,.26.273l.064.086.094-.048a8.461,8.461,0,0,1,1.443-.547c.15-.047.3-.094.456-.145a12.29,12.29,0,0,0,2.079-.948c.315-.169.642-.343.975-.5.914-.439,1.439.043,2,.553l.108.1.08-.123a6.3,6.3,0,0,0,.771-2.126l.032-.151h-.154C65.412,33.765,64.4,33.755,63.379,33.685Z"/><path d="M65.782,40.859l-.2-.219c-.268-.3-.634-.71-1.023-.718a.573.573,0,0,0-.435.193,11.747,11.747,0,0,0-.814.955l-.339.425.219.031a2.714,2.714,0,0,0,.334.022,5.166,5.166,0,0,0,2.081-.61l-.034-.122.052.114Z"/><path d="M59.049,34.232h0a4.908,4.908,0,0,1-1.131,1,3.5,3.5,0,0,1-1.1.341c-.539.108-1.048.211-1.2.571a1.034,1.034,0,0,0,.217.932l.053.085.094-.034a2.925,2.925,0,0,1,.6-.147l.076-.01.026-.072a.367.367,0,0,1,.211-.221,9.511,9.511,0,0,0,2.145-1.411c.31-.246.629-.5.967-.738.393-.279.8-.517,1.176-.733l.316-.181-.361-.051A2.156,2.156,0,0,0,59.049,34.232Z"/><path d="M67.231,34.39l.028.045c.239.388,1.2.349,2.055.315a5.309,5.309,0,0,1,.872,0,3.789,3.789,0,0,1,2.144,1.542l.079.094.095-.076a4.114,4.114,0,0,0,1.561-2.1l.039-.148-.153-.009c-.534-.029-1.079-.087-1.6-.142-.672-.07-1.306-.136-1.921-.151-.86-.022-1.737-.016-2.583-.01l-.508,0,0,.168c-.026.144-.06.281-.092.412Z"/><path d="M61,28.761h0a.212.212,0,0,1,.05-.024l.095-.044.016-.051c.273-.865-.52-1.691-1.406-2.027s-1.665-.143-1.957.5a1.229,1.229,0,0,0,.325,1.593,2.486,2.486,0,0,0,1.5.452A2.278,2.278,0,0,0,61,28.761Z"/><path d="M69.3,41.874c-1.007-.346-2.147-.736-3.119-.211a6.194,6.194,0,0,1-2.582.892c-1.8.149-3.583-1.668-4.495-2.766l-.759-.911.554,1.054c.81,1.538,2.164,4.113,3.513,4.412a1.194,1.194,0,0,0,.256.028,1.135,1.135,0,0,0,.7-.248,6.6,6.6,0,0,1,2.887-1.388,7.147,7.147,0,0,1,3.367.363c.831.26,2.819.8,3.3.211.165-.2.141-.5-.072-.878l-.03-.054-.062-.009a.575.575,0,0,0-.083,0,.22.22,0,0,1-.045,0,6.161,6.161,0,0,0-1.317-.131,5.321,5.321,0,0,1-1.419-.168C69.7,42.011,69.5,41.944,69.3,41.874Z"/><path d="M71.815,41.283l-.12-.21a1.869,1.869,0,0,0-.943-.936l-.161-.049v.139a1.314,1.314,0,0,0-.067.21l-.023.088c-.027.108-.05.219-.072.333l-.056.277.134.018c.271.035.54.058.807.083Z"/><path d="M50.783,40.886a.353.353,0,0,1,.01.056,2.621,2.621,0,0,0,.746,1.982.836.836,0,0,0,.826.106.4.4,0,0,1,.307,0,.416.416,0,0,1,.206.242l.015.028a.21.21,0,0,0,.048.05.614.614,0,0,0,.523.224,4.032,4.032,0,0,0,1.523-.513L55.1,43a.528.528,0,0,1,.426,0,.43.43,0,0,1,.243.121c.423.4,1.114-.345,1.444-.7l.089-.093a.455.455,0,0,1,.167-.112l.07-.025.011-.074a7.349,7.349,0,0,0,.075-1.281l-.009-.3-.207.216a5.051,5.051,0,0,1-1.175.983,7.818,7.818,0,0,1-3,.719l-.1.011a.415.415,0,0,1-.362-.185.409.409,0,0,1-.084-.4l.117-.29c.227-.565.485-1.2.784-1.82l.055-.112-.113-.055a3.164,3.164,0,0,1-1.689-2.8,5.52,5.52,0,0,1,2.15-4.746l.111-.073-.08-.107a.889.889,0,0,1-.146-.327l-.021-.046a1.056,1.056,0,0,0-.846-.47h-.037a.631.631,0,0,0-.475.21,1.319,1.319,0,0,0-.164.983v.007l0,.015,0,.041a.617.617,0,0,1-.083.512.323.323,0,0,1-.269.131A1.977,1.977,0,0,0,50.2,33.8a2.866,2.866,0,0,0-.042,2.654.518.518,0,0,1-.086.578l-.025.044a.374.374,0,0,1-.3.256c-.9.189-1.034.757-1.03,1.079a2.312,2.312,0,0,0,1.74,1.963.364.364,0,0,1,.317.437l0,.016Z"/><path d="M48.028,103.843c-.22-.114-.333-.207-.32-.287s.16-.12.4-.146.526-.073.919-.147a13.076,13.076,0,0,0,2.93-.932,11.668,11.668,0,0,0,1.671-.939,9.67,9.67,0,0,0,1.292-2.943c.766-3.476-.932-6.659-3.689-8.73a1.517,1.517,0,0,1-.153-.14.891.891,0,0,1-.387-.153,6.152,6.152,0,0,1-.486.886A5.841,5.841,0,0,1,48.434,92c-.533.287-.912.36-1,.24s.14-.446.526-.879c.346-.419.839-1,1.319-1.678.406-.619.732-1.2.985-1.671a1.134,1.134,0,0,1,.007-.154,5.76,5.76,0,0,1-2.178,1.372,2.343,2.343,0,0,1-.885.12c-.2-.033-.32-.087-.333-.16s.08-.166.253-.273.359-.226.632-.413a12.556,12.556,0,0,0,1.9-1.6,15.629,15.629,0,0,0,1.086-1.252,20.572,20.572,0,0,1,1.991-3.636c.765-1.212,1.6-2.364,2.41-3.543,1.125-1.631,2.557-3.3.12-4.208-3.057,4.162-6.579,8.13-8.936,12.732a42.241,42.241,0,0,0-4.3,14.3c3.23,1.405,6.193,3.083,8.364,5.9a7.727,7.727,0,0,0,.879-2.284.842.842,0,0,1,.5-.645c.18-.287.366-.573.559-.866a7.446,7.446,0,0,1-3.256.666A3.024,3.024,0,0,1,48.028,103.843Z"/><path d="M47.435,107.032c-.786-.686-1.272-1.185-1.165-1.311.093-.1.679.133,1.625.679.186.113.386.246.592.386a20.216,20.216,0,0,0-6.446-4.189v.007c-.346,1.265-.992,2.417-1.358,3.669,2.43,1.472,5.107,2.444,7.584,3.829.014-.02.02-.033.034-.053a.8.8,0,0,1,.006-.12A10.862,10.862,0,0,0,46.8,108.69c-.58-.412-1.139-.765-1.592-1.078-.932-.626-1.458-1.086-1.378-1.226s.739.087,1.764.533a14.873,14.873,0,0,1,1.765.9,9.352,9.352,0,0,1,1.625,1.2.261.261,0,0,1,.047-.047,1.5,1.5,0,0,0-.353-.692A9.541,9.541,0,0,0,47.435,107.032Z"/><path d="M53.749,87.592h.01c.01,0,.05.031.1.127l.06.109a2.624,2.624,0,0,1,.15.3c.118.249.364.752.7,1.323a10.271,10.271,0,0,0,.775,1.12l.055.067.082-.027c.893-.3,1.11-1.353,1.3-2.285l.014-.066c.038-.186.074-.373.11-.56a12.528,12.528,0,0,1,.452-1.854l.039-.11-.162-.07c-.088-.038-.179-.077-.266-.121s-.16-.086-.243-.134c-.37-.212-.875-.5-1.238-.013a.955.955,0,0,1-.913.415.876.876,0,0,1-.693-.614c-.115-.341-.216-.692-.312-1.031l-.1-.361-.149.239A6.878,6.878,0,0,0,52.118,88l0,.056.045.034a14.769,14.769,0,0,1,1.268,1.069l.327.312-.121-.436a2.668,2.668,0,0,1-.116-.821,1.192,1.192,0,0,1,.107-.516C53.692,87.612,53.735,87.592,53.749,87.592Z"/><path d="M63.111,100.377l.538-26.363a.632.632,0,0,0-.068-.29,18.586,18.586,0,0,0,3.478-4.768,39.508,39.508,0,0,0,2.9-7.325,34.137,34.137,0,0,0,1.7-8.889c-.2-.094-.413-.194-.62-.293a29.809,29.809,0,0,1-2.117,5.926,33.525,33.525,0,0,1-2.351,4.142,18.886,18.886,0,0,1-1.518,2.031c-.34.393-.526.539-.579.5s.02-.266.26-.725.665-1.152,1.238-2.178,1.305-2.371,2.111-4.155A32.462,32.462,0,0,0,70.1,52.036a7.259,7.259,0,0,0-1.372-.427,14.614,14.614,0,0,1-.359,1.439c-.246.666-.433,1.318-.693,1.9s-.512,1.152-.765,1.672c-.28.512-.546.992-.793,1.451a33.483,33.483,0,0,1-2.8,4.056c-.393.473-.726.879-1.019,1.2s-.539.566-.739.753c-.393.373-.593.513-.64.466s.047-.266.34-.719c.313-.44.793-1.126,1.492-2.124s1.571-2.318,2.563-4.082q.35-.679.74-1.419c.239-.513.466-1.059.712-1.618s.42-1.192.653-1.831c.12-.386.213-.8.306-1.219a3.456,3.456,0,0,0-1.046.213,9.911,9.911,0,0,0-1.764.919,22.06,22.06,0,0,1-2.843,5.667c-1.059,1.558-1.978,2.7-2.684,3.549-1.419,1.712-2.018,2.3-2.131,2.218s.3-.833,1.572-2.644c.632-.912,1.478-2.084,2.47-3.629A24.241,24.241,0,0,0,63.6,53.4a8.908,8.908,0,0,1-2.657.825,15.59,15.59,0,0,1-1.551,3.59c-.3.512-.606.952-.879,1.332-.3.372-.54.7-.792.952s-.473.466-.66.632a4.393,4.393,0,0,1-.512.347c-.274.159-.413.2-.453.139s.013-.193.2-.432c.086-.12.213-.26.366-.44s.306-.413.512-.679.4-.593.653-.952c.233-.387.493-.786.759-1.286a13.858,13.858,0,0,0,1.292-3.036h-.013a7.614,7.614,0,0,1-1.678-.306,31.5,31.5,0,0,1-4.848,7.9c-.486.546-.946,1.1-1.465,1.578l-.746.726c-.253.233-.519.44-.772.66-1.019.892-2.038,1.551-2.91,2.264-.44.346-.839.7-1.212,1.052-.18.179-.346.366-.52.546a2.282,2.282,0,0,0-.239.279.316.316,0,0,1-.034.04l-.006.007-.014.013a.856.856,0,0,0-.073.074c-.007.026-.086.073.007.073l.359.06c0,.013.313.006.5.013h.619c.206.007.406.007.606.007l.573-.06c.373-.04.739-.08,1.092-.113.339-.087.672-.16.985-.24a11.342,11.342,0,0,0,2.624-1.026c.759-.566,1.438-1.092,2-1.545.333-.293.639-.546.919-.772s.5-.479.705-.646c.393-.346.66-.5.76-.426s.02.366-.207.846a6.136,6.136,0,0,1-.459.839c-.22.313-.493.672-.8,1.058a23.944,23.944,0,0,1-2.4,2.424A12.993,12.993,0,0,1,51.437,70.9c-.12.073-.233.139-.353.213.247.073.5.14.759.193a11.708,11.708,0,0,0,2.391.16,9.945,9.945,0,0,0,1.112-.1c.173-.027.326-.08.493-.113l.119-.027.061-.013a.006.006,0,0,1-.007.006l.02-.006.273-.107a7.194,7.194,0,0,0,.992-.426,5.992,5.992,0,0,0,.819-.473,5.846,5.846,0,0,0,.759-.533,8.206,8.206,0,0,0,.673-.552c.852-.739,1.478-1.452,1.964-1.905s.786-.692.906-.619.013.453-.267,1.079a11.786,11.786,0,0,1-1.438,2.257,4.8,4.8,0,0,1-.439.726,8.382,8.382,0,0,1-1.419,1.518c-.073.06-.153.12-.226.18a6.2,6.2,0,0,0,2.377-1.065,17.544,17.544,0,0,0,1.964-1.585c1.086-1.006,1.678-1.732,1.945-1.612.246.107.06,1.159-.846,2.531a10.316,10.316,0,0,1-1.938,2.15c-.259.207-.532.413-.832.613a5.365,5.365,0,0,0-.426.446,2.638,2.638,0,0,0-.16.247l.08.046c-.133.18-.253.346-.38.506-.086.173-.179.347-.273.533l-.106.2-.034.08-.066.133a1.177,1.177,0,0,1-.147.253.053.053,0,0,1-.026.027c.08-.007.166-.02.253-.034a2.186,2.186,0,0,0,.346-.086l.087-.027.253-.106c.18-.074.359-.154.539-.227.36-.146.693-.4,1.066-.6l.03-.024-.523,25.6a2.553,2.553,0,0,0-.98.661.5.5,0,0,0,.018.682.542.542,0,0,1,.094.13,1.894,1.894,0,0,0,.821.87l-.414,20.285a.648.648,0,0,0,.635.663H62a.649.649,0,0,0,.649-.637l.414-20.291a1.1,1.1,0,0,0,.588-.7,1.691,1.691,0,0,0-.22-1.369A1.008,1.008,0,0,0,63.111,100.377Z"/><path d="M58.847,84.088c.7-.484.159-1.8-.11-2.263a3.244,3.244,0,0,0-2.568-1.446l-.075-.011-.044.063c-.257.362-.524.728-.79,1.094l-.418.574.061.075a.753.753,0,0,1,.147.246c.113.288.2.6.292.9l.048.163.124-.043a1.769,1.769,0,0,1,1.065-.024,3.894,3.894,0,0,1,.619.284,3.393,3.393,0,0,0,1.314.484A.569.569,0,0,0,58.847,84.088Z"/><path d="M34.032,74.26l.143-.025-.046-.137a.266.266,0,0,0-.025-.053l-.084-.252c-.029-.082-.057-.165-.084-.248a.821.821,0,0,1,.177-.786l.09-.106-.116-.078c-.4-.266-.792-.533-1.191-.805l-.032-.022h-.039c-2.406,0-6.815-.312-9.315-2.408l-.187-.156-.018.242a17.9,17.9,0,0,0,.012,2.615l.018.086.08.027c1.894,1.627,5.027,2.333,7.9,2.333A15.73,15.73,0,0,0,34.032,74.26Z"/><path d="M60.259,103.258l-.067-.072-.086.048a9.744,9.744,0,0,0-1.671,1.1,1.086,1.086,0,0,1-.784.257.624.624,0,0,1-.449-.239,7.036,7.036,0,0,0-2.093-1.735L55,102.553l-.063.107c-.319.542-.649,1.074-1,1.636q-.234.378-.47.76l-.035.058.028.06a1.041,1.041,0,0,1,.084.246c.228,1.446,1.189,3.09,2.582,3.438a2.526,2.526,0,0,0,.617.08,4.35,4.35,0,0,0,2.621-1.305c.11-.089.218-.178.326-.264l.048-.036v-.06a31.206,31.206,0,0,0,1.049-3.456l.018-.079-.066-.049A3.332,3.332,0,0,1,60.259,103.258Z"/><path d="M28.553,78.071c.9,0,1.82-.072,2.634-.134.453-.035.878-.069,1.258-.086l.129-.006-.01-.129a3.541,3.541,0,0,1,.382-2.163l.126-.21-.244.021a15.149,15.149,0,0,1-9.165-1.872l-.222-.141.031.262a25.225,25.225,0,0,0,.474,2.809l.013.052L24,76.5a.457.457,0,0,1,.151.142C25.021,77.8,26.769,78.071,28.553,78.071Z"/><path d="M30.157,81.259l.042-.044a.263.263,0,0,1,.029-.025l.04-.037c.216-.19.417-.369.605-.537a7.57,7.57,0,0,1,1.815-1.37l.093-.041-.02-.1c-.009-.045-.018-.094-.027-.144L32.7,78.79l-.107,0c-.462.013-.96.044-1.488.076-2.176.134-4.648.287-6.428-.641l-.278-.144.1.3a12.91,12.91,0,0,0,.928,2.084l.048.087.1-.027a.421.421,0,0,1,.236,0,28.923,28.923,0,0,0,4.287.735Z"/><path d="M27.682,83.269l.092-.082c.373-.333.766-.65,1.1-.915l.229-.183-.291-.039c-.778-.1-1.57-.245-2.354-.417l-.336-.074.211.272A9.8,9.8,0,0,0,27.393,83a1.21,1.21,0,0,1,.206.175Z"/><path d="M39.917,107.365a13.433,13.433,0,0,0-1.112.806.466.466,0,0,1-.366.293c-3.217,2.77-5.308,7.059-6.8,10.927,2.171.107,4.335.154,6.506.18.12-.066.239-.14.359-.213a14.652,14.652,0,0,0,1.792-1.4c2.43-2.191,3.629-4.648,3.915-4.522.14.047.027.766-.473,1.8a11.661,11.661,0,0,1-3.676,4.355l1.5.02a12.947,12.947,0,0,0,1.445-1.418c1.365-1.658,2.1-3.383,2.43-3.256.14.046.107.532-.1,1.285a8.054,8.054,0,0,1-1.471,2.7,7.235,7.235,0,0,1-.706.706c1.345.019,2.69.046,4.042.093.413-2.764.626-5.554.872-8.337-2.6-1.532-5.473-2.531-8.05-4.1C39.99,107.305,39.957,107.339,39.917,107.365Z"/><path d="M33.3,102l-.021.12c-.05.292-.118.677-.211,1.062a.841.841,0,0,1-.231.406l-.027.026-.009.038a.628.628,0,0,1-.1.229c-.134.222-.255.436-.375.657l-.03.057.028.059c.833,1.674,3.769,2.38,4.649,2.556l.06.013.047-.041a15.3,15.3,0,0,1,1.737-1.334l.038-.026.014-.042c.114-.385.257-.782.462-1.289l.04-.1-.092-.056a15.452,15.452,0,0,0-5.86-2.32Z"/><path d="M34.078,91.647a.865.865,0,0,1,.212.843,24.885,24.885,0,0,0-.661,5.532c-.042.964-.086,1.96-.189,2.93l-.012.12.117.017a16.761,16.761,0,0,1,6.069,2.342l.124.074.184-.436-.048-.059a.731.731,0,0,1-.16-.374c-.361-2.08-.9-4.133-1.417-6.117-.438-1.674-.89-3.4-1.234-5.14-.292-1.462-.513-2.947-.691-4.208l-.019-.135-.132.031a3.216,3.216,0,0,0-.992.429,1.911,1.911,0,0,1-1.55.15,5.808,5.808,0,0,1-2.6-1.966.891.891,0,0,1,.329-1.193,9.8,9.8,0,0,0,2.939-3.122l.074-.129-.14-.051c-1.33-.49-2.51.71-3.552,1.764-.27.271-.524.528-.767.743l-.286.246c-.968.829-2.294,1.965-2.206,3.11A1.956,1.956,0,0,0,28.545,88.5c.712.44,1.476.816,2.215,1.18A16.673,16.673,0,0,1,34.078,91.647Z"/><path d="M36.218,108.012l-.2-.056a8.159,8.159,0,0,1-4.105-2.282l-.122-.147-.086.172a29,29,0,0,0-2.856,12.737l0,.108.107.018a7.363,7.363,0,0,0,.88.1l.09,0,.032-.083c1.834-4.674,3.779-7.984,6.12-10.421Z"/><path d="M47.436,79.9a2.608,2.608,0,0,1,.273,1.029l.02.357.207-.292c.957-1.349,1.954-2.677,2.888-3.912l.2-.267-.328.07A18.181,18.181,0,0,1,40.375,76a24.6,24.6,0,0,1-2.326-1.06L37.6,74.7l.3.417a3.324,3.324,0,0,1,.49,2.924,4.846,4.846,0,0,1-1.176,1.909l-.064.065.041.08a.866.866,0,0,1,.081.279c.114.918.216,1.842.319,2.768.082.74.164,1.48.253,2.22l.01.079.075.024c.228.077.463.167.716.276l.129.055.041-.134c.072-.24.165-.486.256-.723.041-.108.082-.215.12-.322l.016-.046-.018-.044a2.04,2.04,0,0,1,.443-2.265l.063-.067-.046-.081a2.119,2.119,0,0,1-.115-2.27c.688-1.136,2.5-1.715,3.94-1.715.071,0,.14,0,.209,0C44.772,78.185,46.722,78.478,47.436,79.9Z"/><path d="M109.137,74.536a2.345,2.345,0,0,1-.406.413c-.539.42-.952.48-1.032.367-.1-.134.153-.447.453-.906a2.159,2.159,0,0,0,.313-.759.968.968,0,0,0-.227-.753,1.905,1.905,0,0,0-1.538-.679,1.015,1.015,0,0,0-.479.18c-.127.08-.227.18-.3.14s-.127-.127-.093-.34a1.08,1.08,0,0,1,.592-.726,2.137,2.137,0,0,1,1.925.107c-.506-1.618-1.066-3.123-1.405-4.162a.039.039,0,0,0-.027-.007c-.173-.086-.346-.16-.519-.226a1.792,1.792,0,0,1,.16.579,2.05,2.05,0,0,1-.233,1.119,3.44,3.44,0,0,1-.22.36,1.988,1.988,0,0,1-.213.2c-.127.1-.233.14-.3.1s-.093-.14-.087-.3a2.634,2.634,0,0,1,.041-.28c.006-.1.013-.193.026-.306a1.275,1.275,0,0,0-.433-1.266,2.8,2.8,0,0,0-1.591-.346h-.327c-1.644,0-3.136,1.458-4.614,2.57a3.256,3.256,0,0,1,.945.487,2.893,2.893,0,0,1,.873,1.1,1.775,1.775,0,0,1,.146.693,1.2,1.2,0,0,1-.206.646,1.045,1.045,0,0,1-.739.439c-.174.007-.273-.033-.307-.106s.027-.173.133-.293a1.136,1.136,0,0,0,.213-.413.8.8,0,0,0-.166-.506,2.87,2.87,0,0,0-.646-.679,3.541,3.541,0,0,0-1.258-.66,14.683,14.683,0,0,1-2,1.246,4.664,4.664,0,0,1,.586.732,2.676,2.676,0,0,1,.406,1.239,1.4,1.4,0,0,1-.506,1.112,2.4,2.4,0,0,1-.413.206.817.817,0,0,1-.273.02c-.153-.007-.253-.047-.286-.12s.007-.166.107-.28a2.264,2.264,0,0,0,.179-.193c.04-.066.08-.133.12-.193a.8.8,0,0,0,.04-.473,3.044,3.044,0,0,0-.333-.732c-.206-.32-.426-.626-.639-.9a5.234,5.234,0,0,1-1.878.28,1.531,1.531,0,0,1,.033.4l-.013.273-.04.187-.02.093-.013.067-.02.053-.073.22a1.268,1.268,0,0,1-.207.412,1.378,1.378,0,0,1-.293.36,1.949,1.949,0,0,1-.359.266c-.127.054-.253.107-.38.154a2.221,2.221,0,0,1-.672.046c-.806-.1-1.106-.406-1.086-.539,0-.353,2.118.2,2.051-1.625a.841.841,0,0,0-.206-.593,6.3,6.3,0,0,1-.8-.3,28.468,28.468,0,0,1-3.55-2.045v.067a2.292,2.292,0,0,1-.892,1.571,2.241,2.241,0,0,1-.7.36,3.676,3.676,0,0,1-.646.107c-.207-.014-.386-.034-.539-.054a1.813,1.813,0,0,1-.333-.126c-.18-.087-.28-.167-.273-.247s.119-.139.313-.186c.1-.027.226-.033.346-.067s.24-.08.373-.113a1.67,1.67,0,0,0,1.232-1.372,1.777,1.777,0,0,0-.074-.752c-1.7-1.192-3.349-2.464-4.981-3.609a3.17,3.17,0,0,1-.059.326,1.728,1.728,0,0,1-.939,1.119,1.551,1.551,0,0,1-1.159.02,3.535,3.535,0,0,1-.373-.207.969.969,0,0,1-.186-.193c-.094-.12-.134-.226-.094-.293s.134-.1.287-.1c.073,0,.166.014.266.02a1.8,1.8,0,0,1,.266-.006.852.852,0,0,0,.853-.673,1.768,1.768,0,0,0,.026-.792,50.533,50.533,0,0,1-7.078-6.02c-.313,1.285-.686,2.49-1.039,3.669-.18.6-.366,1.179-.559,1.751a1.128,1.128,0,0,1,.459.12A31.44,31.44,0,0,1,75,66.153a.826.826,0,0,0,.366-.526,1.724,1.724,0,0,0-.147-1.072,4.276,4.276,0,0,0-.186-.393.305.305,0,0,1-.02-.28c.047-.067.14-.087.273-.08a.983.983,0,0,1,.533.233,1.834,1.834,0,0,1,.639,1.858,1.576,1.576,0,0,1-.586.9c1.591,1.192,3.11,2.49,4.608,3.809a1.2,1.2,0,0,0,.766-.4,1.805,1.805,0,0,0,.259-1.6,2.917,2.917,0,0,1-.079-.326c-.04-.107-.08-.206-.107-.286-.04-.174-.04-.287.02-.333s.18-.027.333.066a1.432,1.432,0,0,1,.253.173c.087.1.186.22.293.367a2.677,2.677,0,0,1,.26.5,2.536,2.536,0,0,1,.126.659,2.126,2.126,0,0,1-.506,1.512,1.963,1.963,0,0,1-.672.506c1.591,1.418,3.189,2.837,4.854,4.155a5.131,5.131,0,0,0,.713-.04,1.859,1.859,0,0,0,.4-.113.564.564,0,0,1,.067-.04l.006-.007c0,.02.054-.053.08-.079l.007-.007c-.007-.007,0-.02.006-.027a1.238,1.238,0,0,0-.013-.766,4.3,4.3,0,0,0-.293-.805c-.1-.233-.213-.413-.266-.533s-.14-.24-.093-.306.126-.12.333-.06a1.635,1.635,0,0,1,.665.426,2.909,2.909,0,0,1,.633.946,1.926,1.926,0,0,1,.04,1.6,1.249,1.249,0,0,1-.166.253,1.149,1.149,0,0,1-.134.14,1.717,1.717,0,0,1-.239.18l-.213.1a3.01,3.01,0,0,1-.307.073c.453.333.9.659,1.365.966,2.99,2.017,6.473,3.889,10.2,3.722,3.123-.14,6.446-2.67,9.369-1.292C109.643,78.971,109.61,76.847,109.137,74.536ZM95.62,78.092a1.664,1.664,0,0,1-.553.513,2.208,2.208,0,0,1-1.052.286,1.575,1.575,0,0,1-.68-.1c-.153-.059-.233-.126-.233-.206-.006-.166.327-.273.753-.466.433-.173.952-.539.885-.846a1.108,1.108,0,0,0-.292-.606,4.641,4.641,0,0,0-.573-.526c-.167-.14-.346-.273-.466-.379s-.167-.207-.14-.28.126-.12.286-.133a1.535,1.535,0,0,1,.666.08,2.7,2.7,0,0,1,.939.486,1.864,1.864,0,0,1,.706,1.318A1.46,1.46,0,0,1,95.62,78.092Zm5.486-1.178a1.832,1.832,0,0,1-.952.819c-.639.246-1.078.053-1.059-.087.007-.16.313-.279.666-.606,1.2-1.072-.612-1.6-1.391-1.918-.493-.206-.813-.319-.833-.472s.373-.327.986-.307a3.893,3.893,0,0,1,1.052.167,2.9,2.9,0,0,1,1.258.679,1.477,1.477,0,0,1,.293.373c.041.08.074.166.107.246l.013.06c.007.007.007.027.007.027l.007.04.013.073A1.373,1.373,0,0,1,101.106,76.914Zm.906-6.739c-.106.026-.2.046-.286.073a2.157,2.157,0,0,1-.267.093c-.153.04-.259.04-.313-.02s-.033-.173.034-.313a1.957,1.957,0,0,1,.14-.246,3.191,3.191,0,0,1,.306-.286,1.891,1.891,0,0,1,1.085-.387,1.722,1.722,0,0,1,1.372.646,2.069,2.069,0,0,1,.459,1.372,2.018,2.018,0,0,1-.359,1.065c-.393.507-.786.58-.872.48-.113-.127.06-.426.159-.839a1.59,1.59,0,0,0-.253-1.359A1.068,1.068,0,0,0,102.012,70.175Zm3.809,6.339a1.932,1.932,0,0,1-.672.9c-.46.326-.793.393-.893.286s.06-.432.313-.832a1.768,1.768,0,0,0,.247-.606.952.952,0,0,0-.027-.28.194.194,0,0,1-.007-.066,1.086,1.086,0,0,0-.046-.12c-.04-.087-.074-.173-.113-.266a1.7,1.7,0,0,0-.42-.593,1.473,1.473,0,0,0-.573-.24c-.373-.086-.786-.053-.819-.213-.026-.133.133-.426.786-.579a1.748,1.748,0,0,1,1.139.14,2.235,2.235,0,0,1,.939,1.078c.033.094.066.18.1.267.02.053.034.08.054.146l.033.207A1.748,1.748,0,0,1,105.821,76.514Z"/><path d="M100.867,82.95a12.958,12.958,0,0,1-2.026.159h-.249v.125a7.381,7.381,0,0,1-1.4,4.008l-.234.353.388-.17a11.927,11.927,0,0,0,5.306-4.727.237.237,0,0,0,.049-.067l.141-.279-.3.106A10.456,10.456,0,0,1,100.867,82.95Z"/><path d="M36.681,75.707a1.258,1.258,0,0,0-1.063-.438h0a1.694,1.694,0,0,0-1.274.636c-.636.826-.39,2.157-.21,3.129l.057.321a.656.656,0,0,0,.349.4c.05.023.1.047.152.068a.507.507,0,0,0,.185.035.547.547,0,0,0,.239-.061,3.423,3.423,0,0,0,1.946-2.129A2.434,2.434,0,0,0,36.681,75.707Z"/><path d="M27.466,68.132c-1.025-.75-2.3-1.685-3.174-1.349a1.463,1.463,0,0,0-.8,1.182l-.016.076.062.048a.331.331,0,0,0,.052.034.15.15,0,0,1,.033.026c1.362,1.481,3.839,2.352,7.361,2.591l.459.03-.38-.259c-.862-.588-1.793-1.212-2.761-1.8C28.067,68.573,27.775,68.359,27.466,68.132Z"/><path d="M35.794,82.286a.5.5,0,0,0-.533.217,10.626,10.626,0,0,1-2.248,2.462.5.5,0,0,0,.038.8,6.089,6.089,0,0,0,.6.368,1.213,1.213,0,0,0,.569.148,1.782,1.782,0,0,0,.947-.355,1.741,1.741,0,0,1,.413-.219,3.374,3.374,0,0,1,.445-.086.5.5,0,0,0,.439-.556l-.287-2.351A.5.5,0,0,0,35.794,82.286Z"/><path d="M97.644,83.046l-.114-.011c-.389-.039-.69-.08-.976-.131a19.183,19.183,0,0,1-2.381-.6l-.118-.037-.039.117a13.117,13.117,0,0,1-4.1,5.838l-.229.2.3.02c.5.031.9.047,1.28.052h.11a17.315,17.315,0,0,0,3.954-.415l.041-.009.026-.033a8.1,8.1,0,0,0,2.241-4.881Z"/><path d="M81.77,74.258l.068-.092-.968-.85c-.784-.691-1.566-1.379-2.356-2.057l-.109-.094-.078.121a13.581,13.581,0,0,1-8.013,6.2l-.244.054.191.162c1.039.887,2.079,1.773,3.124,2.646l.059.05.072-.031A19.836,19.836,0,0,0,81.77,74.258Z"/><path d="M77.612,70.648l.059-.093-.084-.069c-1.171-.977-2.219-1.792-3.2-2.491l-.1-.07-.073.1c-.907,1.187-4.159,5.144-7.905,6.195l-.241.068.2.151c.844.649,1.734,1.366,2.8,2.255l.04.033.051,0C72.227,76.461,75.389,74.192,77.612,70.648Z"/><path d="M93.121,82.066l.036-.112-.109-.043a22.731,22.731,0,0,1-2.232-1.019l-.113-.06-.057.115a12.445,12.445,0,0,1-7.141,5.742l-.344.1.332.136a21.16,21.16,0,0,0,4.83,1.347l.053.008.042-.034A12.824,12.824,0,0,0,93.121,82.066Z"/><path d="M69.941,70.9a20.607,20.607,0,0,0,3.483-3.416l.082-.106-.111-.075a32.377,32.377,0,0,0-2.807-1.68.693.693,0,0,1-.074-.052l-.133-.105-.062.157a35.515,35.515,0,0,1-1.9,4.094,21.357,21.357,0,0,1-2.2,3.284l-.287.35.425-.154A12.612,12.612,0,0,0,69.941,70.9Z"/><path d="M84.367,78.586c.331-.418.661-.835,1-1.247l.08-.1-.1-.079c-.84-.681-1.725-1.429-2.707-2.288l-.1-.088-.081.106a20.5,20.5,0,0,1-8.024,6.083l-.181.084.154.126c1.1.894,2.118,1.674,3.124,2.383l.048.033.057-.015a9.349,9.349,0,0,0,4.733-2.606C83.079,80.212,83.734,79.385,84.367,78.586Z"/><path d="M89.826,80.475l.048-.1-.1-.056c-.64-.378-1.26-.78-1.843-1.2-.613-.424-1.2-.876-1.647-1.22l-.1-.075-.077.094c-.352.428-.7.879-1.033,1.316a19.489,19.489,0,0,1-2.78,3.13,9.6,9.6,0,0,1-3.446,1.853l-.249.08.219.144a29.389,29.389,0,0,0,2.748,1.6l.031.016.034,0A10.993,10.993,0,0,0,89.826,80.475Z"/></g><text x="0" y="143" fill="#000000" font-size="5px" font-weight="bold" font-family="'Helvetica Neue', Helvetica, Arial-Unicode, Arial, Sans-serif">Created by Hey Rabbit</text><text x="0" y="148" fill="#000000" font-size="5px" font-weight="bold" font-family="'Helvetica Neue', Helvetica, Arial-Unicode, Arial, Sans-serif">from the Noun Project</text></svg>